<?xml version="1.0" encoding="utf-8"?>
<!-- Generator: Adobe Illustrator 19.2.1, SVG Export Plug-In . SVG Version: 6.00 Build 0)  -->
<svg version="1.1" id="Layer_1" xmlns="http://www.w3.org/2000/svg" xmlns:xlink="http://www.w3.org/1999/xlink" x="0px" y="0px"
	 viewBox="0 0 600 150" style="enable-background:new 0 0 600 150;" xml:space="preserve">
<style type="text/css">
	.st0{fill:none;}
	.st1{fill:#4D4D4D;}
	.st2{fill:#37D6C0;}
</style>
<g>
	<rect class="st0" width="150" height="150"/>
	<rect x="150" class="st0" width="150" height="150"/>
	<rect x="300" class="st0" width="150" height="150"/>
	<rect x="450" class="st0" width="150" height="150"/>
	<path class="st1" d="M94.9,49c-1.2,1.2-2.3,2.5-3.4,3.8c-0.4,5.4-2,9.5-3.2,12.6c-0.9,2.4-1.7,4.3-1.7,6.2V72
		c0,12.6-0.7,23.1-2.2,29.3c-1.1,4.5-2.1,7.1-2.8,8.6c-0.3-1.7-0.5-3.8-0.7-5.5c-0.3-2.4-0.5-4.8-0.9-7.1c-0.8-4.5-4.1-19-11.6-19
		c-7.6,0-10.8,14.6-11.6,19c-0.4,2.3-0.7,4.7-0.9,7.1c-0.2,1.7-0.4,3.8-0.7,5.5c-0.8-1.5-1.8-4-2.8-8.6C50.7,95.1,50,84.7,50,72
		v-0.4c0-1.9-0.7-3.8-1.7-6.2C46.9,61.9,45,56.9,45,50c0-11.3,9.9-11.7,10-11.7c1.1,0,2.5,0.3,4.2,0.8c2.5,0.6,5.5,1.3,9.1,1.3
		c3.6,0,6.7-0.7,9.1-1.3c1.7-0.4,3.1-0.8,4.2-0.8c0.1,0,3,0.1,5.7,2c1-0.6,1.9-1.3,3-1.9c-3.1-2.7-6.8-3.5-8.7-3.5
		c-3.4,0-7.6,2.1-13.3,2.1c-5.7,0-9.9-2.1-13.3-2.1c-3.4,0-13.3,2.7-13.3,15c0,11.7,5,18.1,5,21.7c0,2.1-0.2,19.9,2.3,30.5
		c1.8,7.6,4.1,12.9,7,12.9c2.9,0,2.7-9.9,4-17c1.3-7.2,4.5-16.3,8.4-16.3c3.8,0,7,9.1,8.4,16.3c1.3,7.2,1.2,17,4,17
		c2.9,0,5.2-5.3,7-12.9C90.2,91.6,90,73.7,90,71.7c0-3.5,5-10,5-21.7C95,49.6,95,49.3,94.9,49z"/>
	<path class="st2" d="M71.7,60.6L58.3,55l15.8,20c0,0,12-30.9,34.2-40C84.1,41.1,71.7,60.6,71.7,60.6z"/>
	<g>
		<path class="st2" d="M195.2,60.7c-0.9,0.9-1.3,2-1.3,3.1s0.4,2.3,1.3,3.1l13.3,13.3c0.8,0.8,2,1.3,3.1,1.3h27.8l32.4,17.2
			c0.6,0.3,1.3,0.5,2,0.5c1.6,0,3.2-0.9,4-2.5c0.3-0.6,0.4-1.2,0.5-1.8c0.1-1.7-0.9-3.3-2.5-4.1l-33.3-17.7c-0.6-0.3-1.3-0.5-2-0.5
			h-27l-12-12c-0.9-0.9-2-1.3-3.1-1.3C197.2,59.4,196.1,59.9,195.2,60.7z"/>
		<circle class="st2" cx="189.4" cy="50.6" r="8.9"/>
	</g>
	<g>
		<path class="st1" d="M275.9,106.6l-37.8-20c-0.6-0.3-1.3-0.5-2-0.5h-29.3l-27.6-27.6c-0.9-0.9-2-1.3-3.1-1.3
			c-1.1,0-2.3,0.4-3.1,1.3c-0.9,0.9-1.3,2-1.3,3.1s0.4,2.3,1.3,3.1l40,40c0.8,0.8,2,1.3,3.1,1.3l22.6-9.3l33.2,17.7
			c0.6,0.3,1.3,0.5,2,0.5c1.6,0,3.2-0.9,4-2.4c0.3-0.7,0.5-1.4,0.5-2.1C278.3,108.8,277.4,107.3,275.9,106.6z"/>
		<path class="st1" d="M222.8,45.4c0-0.5-0.1-1-0.2-1.5h11.3c1.2,0,2.2,1,2.2,2.2v22.2h4.4V46.1c0-3.7-3-6.7-6.7-6.7h-13
			c-1.9-2.7-5-4.4-8.5-4.4c-2.9,0-5.5,1.2-7.4,3.1l14.7,14.7C221.6,50.9,222.8,48.3,222.8,45.4z"/>
	</g>
	<path class="st2" d="M400.4,91.7c-0.7,0-1.7,0.4-2.9,0.4s-2.2-0.4-2.9-0.4c-0.7,0-2.9,0.6-2.9,3.1c0,2.4,1.1,3.8,1.1,4.5
		c0,0.4,0,4.1,0.5,6.3c0.4,1.6,0.9,2.7,1.5,2.7s0.6-2.1,0.9-3.6c0.3-1.5,1-3.4,1.8-3.4s1.5,1.9,1.8,3.4c0.3,1.5,0.3,3.6,0.9,3.6
		s1.1-1.1,1.5-2.7c0.5-2.2,0.5-5.9,0.5-6.3c0-0.7,1.1-2.1,1.1-4.5C403.3,92.2,401.2,91.7,400.4,91.7z"/>
	<g>
		<path class="st1" d="M385,38.3c-1.4-2.9-5.9-3.3-10-3.3c-9.9,0-16.7,4.7-16.7,13.3c0,4.3,0,5,0,5c0,13.3,6.7,25,16.7,25
			s16.7-11.7,16.7-25v-3.6C391.7,45,391,38.3,385,38.3z M388.8,53.3c0,12.4-6,22.1-13.8,22.1s-13.8-9.7-13.8-22.1v-1.7h0.4
			c13.3,0,20-3.3,20-3.3s3.3,3.3,6.7,3.3c0.2,0,0.3,0,0.4,0V53.3z"/>
		<path class="st1" d="M408.3,85.8c-2-1.5-22.5-9.2-22.5-9.2l-7.5,35V93.3l-2.7-5l2.7-3.3l-3.3-3.3l-3.3,3.3l2.7,3.3l-2.7,5v18.3
			l-7.5-35c0,0-20.5,7.6-22.5,9.2C338.9,88,335,110,335,115h80C415,110,411.1,88,408.3,85.8z M338.8,111.7c0.6-6,3.3-21.1,4.9-23.2
			c1.7-1,9.8-4.2,18-7.3l6.5,30.5C368.2,111.7,340,111.7,338.8,111.7z M388.3,81.1c8.2,3.1,16.3,6.3,18,7.3
			c1.6,2.1,4.3,17.2,4.9,23.2c-1.2,0-29.4,0-29.4,0L388.3,81.1z"/>
	</g>
	<path class="st1" d="M557.3,45.7c-0.6-0.5-1.2-0.7-2-0.7h-5.2c-5.4,0-15.6-1.6-23-9.1c-0.6-0.6-1.4-0.9-2.1-0.9
		c-0.8,0-1.6,0.3-2.1,0.9c-7.4,7.5-17.6,9.1-23,9.1h-5.2c-0.7,0-1.4,0.3-2,0.7c-0.7,0.6-1.1,1.4-1.1,2.4v16.8
		c0,38.7,32.1,49.8,32.4,49.9c0.3,0.1,0.6,0.2,0.9,0.2h0c0.3,0,0.6,0,0.9-0.2c0.3-0.1,32.4-11.2,32.4-49.9V48.1
		C558.3,47.2,557.9,46.3,557.3,45.7z M553.3,64.9c0,32.3-24.1,43.3-28.3,44.9c-4.4-1.8-28.3-12.7-28.3-44.9V50h3.2
		c3.6,0,15.6-0.7,25.1-9.2c9.5,8.5,21.5,9.2,25.1,9.2h3.2V64.9z"/>
	<path class="st2" d="M531.7,55c-1.7,0-3.8,1-6.7,1c-2.9,0-5-1-6.7-1s-6.7,1.3-6.7,7.5c0,5.8,2.5,9.1,2.5,10.8c0,1-0.1,9.9,1.1,15.2
		c0.9,3.8,2.1,6.4,3.5,6.4c1.4,0,1.4-4.9,2-8.5c0.7-3.6,2.3-8.1,4.2-8.1c1.9,0,3.5,4.6,4.2,8.1c0.7,3.6,0.6,8.5,2,8.5
		c1.4,0,2.6-2.6,3.5-6.4c1.2-5.3,1.1-14.2,1.1-15.2c0-1.8,2.5-5,2.5-10.8C538.3,56.3,533.4,55,531.7,55z"/>
</g>
</svg>
