<?xml version="1.0" encoding="utf-8"?>
<!-- Generator: Adobe Illustrator 19.2.1, SVG Export Plug-In . SVG Version: 6.00 Build 0)  -->
<svg version="1.1" id="Layer_1" xmlns="http://www.w3.org/2000/svg" xmlns:xlink="http://www.w3.org/1999/xlink" x="0px" y="0px"
	 viewBox="0 0 351.6 100" style="enable-background:new 0 0 351.6 100;" xml:space="preserve">
<style type="text/css">
	.st0{fill:#103954;}
	.st1{fill:#69A497;}
	.st2{fill:#FFFFFF;}
</style>
<rect y="16.4" class="st0" width="282.9" height="83.6"/>
<rect y="75" class="st1" width="282.9" height="25"/>
<g>
	<path class="st2" d="M35.6,42.9c0,0.5-0.2,0.7-0.6,0.7H23.4c-0.4,0-0.6-0.2-0.6-0.7V31.4h-0.7c-0.4,0-0.7-0.2-0.7-0.6v-1.7
		c0-0.4,0.2-0.7,0.6-0.7c2.4-0.2,4.7-0.3,7-0.3c2.5,0,4.2,0.3,5.2,1c0.9,0.7,1.4,2.1,1.4,4.1V42.9z M32.2,40.5v-7.2
		c0-0.9-0.3-1.5-0.8-1.7c-0.4-0.2-1.2-0.3-2.5-0.3h-2.7v9.2H32.2z"/>
	<path class="st2" d="M41.9,36.7c0,0.3,0,0.5-0.1,0.6c-0.1,0.1-0.2,0.1-0.5,0.1h-2.2c-0.4,0-0.6-0.2-0.6-0.7v-7.8
		c0-0.4,0.2-0.6,0.6-0.6h2.2c0.3,0,0.5,0,0.5,0.1c0.1,0.1,0.1,0.3,0.1,0.6V36.7z"/>
	<path class="st2" d="M48.1,36.7c0,0.3,0,0.5-0.1,0.6c-0.1,0.1-0.2,0.1-0.5,0.1h-2.2c-0.4,0-0.6-0.2-0.6-0.7v-7.8
		c0-0.4,0.2-0.6,0.6-0.6h2.2c0.3,0,0.5,0,0.5,0.1c0.1,0.1,0.1,0.3,0.1,0.6V36.7z"/>
	<path class="st2" d="M57.5,42.8c0,0.3,0,0.6-0.1,0.7c-0.1,0.1-0.3,0.1-0.6,0.1H51c-0.3,0-0.4,0-0.5-0.1c-0.1-0.1-0.1-0.3-0.1-0.5
		v-1.8c0-0.3,0.1-0.5,0.2-0.6c0.1-0.1,0.3-0.1,0.5-0.1h3.1v-7.6c0-0.6-0.1-1.1-0.4-1.3c-0.2-0.2-0.7-0.4-1.3-0.4c-0.3,0-0.6,0-1,0.1
		c-0.4,0.1-0.6-0.1-0.6-0.6v-1.5c0-0.3,0-0.4,0.1-0.5c0-0.1,0.2-0.2,0.4-0.3c0.3-0.1,1-0.2,2-0.2c1.5,0,2.5,0.4,3.2,1.1
		c0.7,0.7,1,1.9,1,3.5V42.8z"/>
	<path class="st2" d="M63.8,36.7c0,0.3,0,0.5-0.1,0.6c-0.1,0.1-0.2,0.1-0.5,0.1h-2.2c-0.4,0-0.6-0.2-0.6-0.7v-7.8
		c0-0.4,0.2-0.6,0.6-0.6h2.2c0.3,0,0.5,0,0.5,0.1c0.1,0.1,0.1,0.3,0.1,0.6V36.7z"/>
	<path class="st2" d="M83.3,29.1l-1.9,9.2c-0.7,3.6-2.8,5.4-6.2,5.4h-1.8c-1.5,0-2.8-0.4-3.7-1.2c-0.9-0.8-1.5-2.1-1.8-3.8l-1.8-9.6
		c-0.1-0.6,0-0.9,0.4-0.9h2.4c0.3,0,0.5,0.3,0.7,0.9l1.2,7.2l0.1-0.1c0.7-0.4,1.1-1.1,1.3-2.1l0.8-5.1c0.1-0.6,0.3-0.8,0.7-0.8H76
		c0.3,0,0.5,0.1,0.5,0.3c0,0.1,0,0.3-0.1,0.7l-0.9,4.8c-0.3,1.4-0.9,2.4-1.9,3l-2.4,1.3l0.2,1c0.2,1,0.9,1.5,2,1.5H75
		c1.6,0,2.5-0.7,2.8-2.2l2-9.7c0.1-0.5,0.3-0.7,0.7-0.7h2.3C83.3,28.3,83.4,28.6,83.3,29.1z"/>
	<path class="st2" d="M105,43c0,0.4-0.1,0.6-0.4,0.6H102c-0.3,0-0.5-0.1-0.7-0.2c0,0-0.1-0.2-0.4-0.5l-4.9-7c-0.1,0-0.3,0.6-0.5,1.8
		l-1,5.1c-0.1,0.5-0.4,0.8-0.8,0.8h-2c-0.4,0-0.6-0.2-0.6-0.7v-0.2l0.7-3.6c0.3-1.6,0.8-2.8,1.5-3.5l1.5-1.4l-3.5-4.7
		c-0.2-0.3-0.3-0.5-0.3-0.6c0-0.4,0.1-0.6,0.4-0.6h2.6c0.3,0,0.6,0.2,0.9,0.6l4.5,6.2c0.2-0.2,0.4-0.7,0.5-1.7l0.8-4.4
		c0.1-0.5,0.3-0.8,0.7-0.8h2.2c0.5,0,0.7,0.1,0.7,0.4c0,0.1,0,0.3-0.1,0.6l-0.5,2.7c-0.3,1.5-0.9,2.7-1.8,3.5l-1.4,1.3l4.1,5.7
		C104.9,42.7,105,42.9,105,43z"/>
	<path class="st2" d="M119.2,38.2c0,3.7-2.1,5.6-6.3,5.6c-2.2,0-3.9-0.2-5.2-0.5c-0.4-0.1-0.6-0.4-0.6-0.8v-1.3
		c0-0.5,0.2-0.8,0.6-0.7c1.6,0.2,3.2,0.2,4.7,0.2c1.3,0,2.2-0.2,2.6-0.5c0.4-0.3,0.7-0.9,0.7-1.7v-5.9c0-0.7-0.2-1.1-0.7-1.3
		c-0.3-0.2-1-0.2-2-0.2c-1.2,0-2.1,0-2.6,0.1v3c0,0.2,0,0.3,0,0.3c0,0.1,0.1,0.1,0.4,0.1h2.1c0.4,0,0.6,0.2,0.6,0.6v1.4
		c0,0.5-0.4,0.8-1.1,0.8h-3.9c-0.5,0-0.8,0-1-0.1c-0.3-0.2-0.4-0.5-0.4-1.1v-6.8c0-0.4,0.2-0.7,0.7-0.8c1.5-0.4,3.2-0.6,5.1-0.6
		c2.6,0,4.4,0.5,5.2,1.4c0.7,0.8,1.1,2.1,1.1,3.8V38.2z"/>
	<path class="st2" d="M125.6,42.9c0,0.3-0.1,0.6-0.2,0.6c-0.1,0.1-0.3,0.1-0.5,0.1h-2.2c-0.4,0-0.6-0.2-0.6-0.7V29
		c0-0.5,0.2-0.8,0.6-0.8h2.2c0.3,0,0.5,0,0.5,0.1c0.1,0.1,0.1,0.3,0.1,0.6V42.9z"/>
	<path class="st2" d="M138.7,42.9c0,0.3-0.1,0.6-0.2,0.6c-0.1,0.1-0.3,0.1-0.5,0.1h-2.1c-0.4,0-0.7-0.2-0.7-0.7v-9.5
		c0-0.9-0.3-1.5-0.9-1.8c-0.4-0.2-1.1-0.3-2.1-0.3c-1.3,0-2.6,0.1-3.8,0.2c-0.4,0-0.6-0.1-0.6-0.6v-1.5c0-0.3,0-0.5,0.1-0.5
		c0-0.1,0.2-0.1,0.4-0.2c0.9-0.3,2.5-0.5,4.8-0.5c1.9,0,3.2,0.3,4.1,1c1,0.8,1.6,2.1,1.6,4V42.9z"/>
	<path class="st2" d="M150.3,41l-0.5,1.7c-0.3,1.2-1.1,2.4-2.3,3.8c-0.2,0.3-0.4,0.4-0.6,0.4c-0.2,0-0.3-0.1-0.3-0.2
		c0-0.1,0-0.2,0-0.3l1.2-5.4c0.1-0.5,0.4-0.7,0.9-0.7h1C150.2,40.1,150.4,40.4,150.3,41z"/>
	<path class="st2" d="M164.4,29.4l-4.5,13.4c-0.2,0.5-0.4,0.8-0.8,0.8h-2.5c-0.2,0-0.4-0.1-0.4-0.4c0-0.2,0.1-0.4,0.2-0.7l3.7-11.1
		h-7.4c-0.4,0-0.6-0.2-0.6-0.7V24c0-0.4,0.2-0.6,0.7-0.6h2.2c0.4,0,0.6,0.3,0.6,0.8v4.1h8.2c0.5,0,0.7,0.2,0.7,0.6
		C164.4,29,164.4,29.2,164.4,29.4z"/>
	<path class="st2" d="M174.6,42.9c0,0.5-0.1,0.7-0.4,0.7h-2.4c-0.3,0-0.4-0.2-0.4-0.7v-3.2c0-0.1-0.1-0.2-0.3-0.2
		c-0.2,0-0.3,0.1-0.4,0.3l-0.3,1.3c-0.1,0.6-0.4,1-0.6,1.3c-0.6,0.6-1.3,1-2,1.3c-0.4,0.1-0.7,0.2-0.9,0.2c-0.4,0-0.6-0.2-0.6-0.5
		v-2.1c0-0.3,0.1-0.5,0.4-0.6c0.8-0.4,1.5-0.8,2.1-1.2c0.9-0.6,1.5-1.1,1.8-1.4c0.4-0.5,0.7-1.1,0.7-1.7v-3.5c0-0.6-0.2-1-0.5-1.2
		c-0.3-0.1-0.8-0.2-1.6-0.2c-0.7,0-1.2,0-1.5,0.1c-0.4,0.1-0.7-0.1-0.7-0.6v-1.5c0-0.4,0.2-0.6,0.5-0.7c0.6-0.2,1.5-0.3,2.7-0.3
		c1.6,0,2.7,0.3,3.4,0.9c0.7,0.7,1.1,1.8,1.1,3.2V42.9z"/>
	<path class="st2" d="M190.7,35.7c0,2.7-0.4,4.6-1.3,5.8c-1.1,1.6-2.9,2.3-5.3,2.3h0c-2.6,0-4.5-0.7-5.5-2.2c-0.8-1.1-1.1-3-1.1-5.6
		c0-2.8,0.3-4.6,0.8-5.6c1-1.6,2.9-2.4,5.8-2.4h0c3.4,0,5.5,1.1,6.1,3.4C190.5,32.5,190.7,33.9,190.7,35.7z M187.2,37.5v-3.2
		c0-1.1-0.2-1.9-0.6-2.4c-0.4-0.6-1.2-0.9-2.3-0.9h-0.8c-1,0-1.8,0.3-2.1,0.8c-0.3,0.5-0.5,1.2-0.5,2.3v3.4c0,1.2,0.2,2,0.5,2.5
		c0.4,0.6,1.2,0.9,2.4,0.9h0.6C186.2,40.8,187.2,39.7,187.2,37.5z"/>
	<path class="st2" d="M203.1,49.4c0,0.5-0.2,0.7-0.7,0.7h-2.2c-0.4,0-0.6-0.2-0.6-0.7V29c0-0.5,0.2-0.7,0.7-0.7h2.2
		c0.3,0,0.5,0,0.5,0.1c0,0.1,0.1,0.3,0.1,0.7V49.4z"/>
	<path class="st2" d="M218.8,42.9c0,0.5-0.2,0.7-0.6,0.7H216c-0.2,0-0.4,0-0.5-0.1c-0.1-0.1-0.1-0.3-0.1-0.6v-9.6
		c0-0.8-0.2-1.4-0.5-1.6c-0.3-0.3-1-0.4-2-0.4c-1.8,0-2.8,0-3.2,0.1v11.6c0,0.5-0.2,0.7-0.7,0.7h-2.2c-0.2,0-0.4,0-0.5-0.1
		c-0.1-0.1-0.1-0.3-0.1-0.6V29.2c0-0.4,0.2-0.6,0.7-0.7c1.8-0.2,3.9-0.3,6.4-0.3c2,0,3.4,0.4,4.2,1.1c0.8,0.7,1.3,2,1.3,3.7V42.9z"
		/>
	<path class="st2" d="M237.9,42.9c0,0.3-0.1,0.6-0.2,0.6c-0.1,0.1-0.3,0.1-0.5,0.1h-2.1c-0.4,0-0.7-0.2-0.7-0.7v-9.5
		c0-0.9-0.3-1.5-0.9-1.8c-0.4-0.2-1.1-0.3-2.1-0.3c-1.3,0-2.6,0.1-3.8,0.2c-0.4,0-0.6-0.1-0.6-0.6v-1.5c0-0.3,0-0.5,0.1-0.5
		s0.2-0.1,0.4-0.2c0.9-0.3,2.5-0.5,4.8-0.5c1.9,0,3.2,0.3,4.1,1c1,0.8,1.6,2.1,1.6,4V42.9z"/>
	<path class="st2" d="M240.1,32.4l0.5-2c0.3-1.4,1.1-2.7,2.3-4.1c0.2-0.3,0.4-0.4,0.6-0.4c0.3,0,0.4,0.2,0.3,0.5l-1.2,6.1
		c-0.1,0.5-0.4,0.7-0.9,0.7h-1C240.2,33.2,240,32.9,240.1,32.4z M243.9,32.4l0.5-2c0.3-1.4,1.1-2.7,2.3-4.1c0.2-0.3,0.4-0.4,0.6-0.4
		c0.2,0,0.3,0.2,0.3,0.5l-1.2,6.1c-0.1,0.5-0.4,0.7-0.9,0.7h-1C244,33.2,243.8,32.9,243.9,32.4z"/>
	<path class="st2" d="M261.4,30.4c0,0.4-0.2,0.6-0.5,0.7l-1.7,0.3v11.5c0,0.3-0.1,0.6-0.2,0.6c-0.1,0.1-0.3,0.1-0.5,0.1h-2.1
		c-0.4,0-0.7-0.2-0.7-0.7V31.4h-6.1c-0.5,0-0.7-0.2-0.7-0.7V29c0-0.5,0.2-0.7,0.7-0.7h11.2c0.4,0,0.6,0.2,0.6,0.6V30.4z"/>
</g>
<g>
	<path class="st2" d="M49.2,55.6l-2,10c-0.4,1.9-1.1,3.2-2.2,4c-0.9,0.7-2.3,1-4.1,1h-1c-1.6,0-2.8-0.3-3.6-1
		c-0.9-0.7-1.5-1.9-1.7-3.6l-1.7-10.4c-0.1-0.4,0.1-0.6,0.3-0.6h1.5c0.3,0,0.5,0.2,0.6,0.5l1.2,8.7l0.6-0.2c1-0.3,1.7-1.2,1.9-2.6
		l0.8-5.8c0.1-0.4,0.3-0.6,0.6-0.6h1.5c0.3,0,0.4,0.2,0.3,0.5l-1,5.9c-0.3,1.7-1.2,2.9-2.6,3.4l-1.8,0.7l0.1,0.6
		c0.3,1.5,1.2,2.3,2.8,2.3h1.4c2,0,3.2-0.9,3.6-2.7l2.1-10.4c0-0.2,0.2-0.4,0.4-0.4h1.6C49.2,55,49.3,55.2,49.2,55.6z"/>
	<path class="st2" d="M62.6,69.9c0,0.3-0.2,0.5-0.5,0.5h-1.4c-0.3,0-0.5-0.2-0.5-0.5V59.4c0-0.9-0.3-1.5-0.8-1.8
		c-0.6-0.4-1.6-0.6-3.2-0.6c-1.4,0-2.7,0.1-3.8,0.3c-0.5,0.1-0.7,0-0.7-0.3V56c0-0.3,0.2-0.5,0.5-0.6c1-0.3,2.5-0.5,4.5-0.5
		c3.9,0,5.8,1.5,5.8,4.6V69.9z"/>
	<path class="st2" d="M69,69.8c0,0.4-0.2,0.6-0.5,0.6h-1.4c-0.3,0-0.4-0.2-0.4-0.6V55.5c0-0.3,0.2-0.5,0.5-0.5h1.4
		c0.3,0,0.4,0.2,0.4,0.5V69.8z"/>
	<path class="st2" d="M88.6,55.6l-2,10c-0.4,1.9-1.1,3.2-2.2,4c-0.9,0.7-2.3,1-4.1,1h-1c-1.6,0-2.8-0.3-3.6-1
		c-0.9-0.7-1.5-1.9-1.7-3.6l-1.7-10.4c-0.1-0.4,0.1-0.6,0.3-0.6h1.5c0.3,0,0.5,0.2,0.6,0.5l1.2,8.7l0.6-0.2c1-0.3,1.7-1.2,1.9-2.6
		l0.8-5.8c0.1-0.4,0.3-0.6,0.6-0.6h1.5c0.3,0,0.4,0.2,0.3,0.5l-1,5.9c-0.3,1.7-1.2,2.9-2.6,3.4l-1.8,0.7l0.1,0.6
		c0.3,1.5,1.2,2.3,2.8,2.3h1.4c2,0,3.2-0.9,3.6-2.7l2.1-10.4c0-0.2,0.2-0.4,0.4-0.4h1.6C88.5,55,88.7,55.2,88.6,55.6z"/>
	<path class="st2" d="M100.4,63.2c0,0.4-0.2,0.6-0.5,0.6h-1.4c-0.3,0-0.4-0.2-0.4-0.6v-7.7c0-0.3,0.1-0.5,0.4-0.5h1.4
		c0.3,0,0.4,0.2,0.4,0.5V63.2z"/>
	<path class="st2" d="M114.7,56.2L110,69.6c-0.2,0.5-0.4,0.8-0.6,0.8h-1.6c-0.3,0-0.4-0.2-0.3-0.6l4.6-12.7h-8.3
		c-0.3,0-0.4-0.2-0.4-0.6v-5.9c0-0.2,0-0.4,0.1-0.4c0.1-0.1,0.2-0.1,0.4-0.1h1.4c0.3,0,0.5,0.2,0.5,0.5V55h8.7
		c0.3,0,0.4,0.2,0.4,0.6C114.8,55.8,114.8,56,114.7,56.2z"/>
	<path class="st2" d="M120.4,69.8c0,0.4-0.2,0.6-0.5,0.6h-1.4c-0.3,0-0.4-0.2-0.4-0.6V55.5c0-0.3,0.2-0.5,0.5-0.5h1.4
		c0.3,0,0.4,0.2,0.4,0.5V69.8z"/>
	<path class="st2" d="M136.2,65c0,1.8-0.4,3.2-1.3,4.1c-0.9,1-2.5,1.5-4.6,1.5c-1.9,0-3.8-0.2-5.5-0.5c-0.3-0.1-0.5-0.2-0.5-0.5
		v-0.9c0-0.3,0.2-0.4,0.5-0.4c2.1,0.1,4,0.2,5.6,0.2c1.3,0,2.2-0.2,2.7-0.7c0.4-0.4,0.6-1,0.6-1.8v-6.2c0-1-0.2-1.7-0.6-2.2
		c-0.4-0.4-1.2-0.6-2.4-0.6c-2.3,0-3.6,0-4.1,0.1v4.6c0,0.1,0.1,0.1,0.2,0.1h3.2c0.3,0,0.5,0.2,0.5,0.5v1.1c0,0.3-0.2,0.5-0.5,0.5
		h-5c-0.5,0-0.7-0.3-0.7-0.8v-7c0-0.2,0.2-0.4,0.7-0.5c1.5-0.4,3.1-0.6,4.9-0.6c2.5,0,4.2,0.5,5,1.4c0.8,0.9,1.2,2.1,1.2,3.8V65z"/>
	<path class="st2" d="M142.2,63.2c0,0.4-0.2,0.6-0.5,0.6h-1.4c-0.3,0-0.4-0.2-0.4-0.6v-7.7c0-0.3,0.1-0.5,0.4-0.5h1.4
		c0.3,0,0.4,0.2,0.4,0.5V63.2z"/>
	<path class="st2" d="M158.3,65c0,2-0.6,3.5-1.7,4.4c-1,0.8-2.5,1.2-4.5,1.2c-1.9,0-3.7-0.1-5.3-0.4c-0.4-0.1-0.6-0.3-0.6-0.7V55.5
		c0-0.3,0.2-0.5,0.5-0.5h1.3c0.4,0,0.6,0.2,0.6,0.5v12.8c0.9,0.1,2.3,0.2,4.2,0.2c2.1,0,3.2-1.1,3.2-3.2v-5.8c0-1-0.3-1.6-0.8-2
		c-0.4-0.3-1-0.4-1.9-0.4c-0.2,0-0.7,0-1.5,0.1c-0.4,0-0.6-0.1-0.6-0.4v-0.9c0-0.2,0.1-0.4,0.4-0.5c0.4-0.2,1.2-0.3,2.4-0.3
		c2.9,0,4.3,1.6,4.3,4.7V65z"/>
	<path class="st2" d="M172.6,56.2l-4.8,13.4c-0.2,0.5-0.4,0.8-0.6,0.8h-1.6c-0.3,0-0.4-0.2-0.3-0.6l4.6-12.7h-8.3
		c-0.3,0-0.4-0.2-0.4-0.6v-5.9c0-0.2,0-0.4,0.1-0.4c0.1-0.1,0.2-0.1,0.4-0.1h1.4c0.3,0,0.5,0.2,0.5,0.5V55h8.7
		c0.3,0,0.4,0.2,0.4,0.6C172.7,55.8,172.6,56,172.6,56.2z"/>
	<path class="st2" d="M193.8,69.8c0,0.4-0.1,0.6-0.4,0.6h-1.4c-0.3,0-0.5-0.2-0.5-0.6V59.1c0-0.9-0.3-1.5-1-1.8
		c-0.5-0.2-1.7-0.3-3.6-0.3c-0.7,0-2.2,0.1-4.5,0.3c-0.5,0.1-0.8-0.1-0.8-0.3v-1.1c0-0.3,0.2-0.5,0.7-0.6c1.4-0.3,3.1-0.4,5.1-0.4
		c2.2,0,3.8,0.2,4.7,0.7c1.2,0.6,1.7,1.6,1.7,3.2V69.8z M184.3,69.8c0,0.4-0.2,0.6-0.5,0.6h-1.4c-0.3,0-0.4-0.2-0.4-0.6v-5.3
		c0-0.9,0.2-1.8,0.6-2.6c0.1-0.3,0.3-0.4,0.5-0.4h0.9c0.2,0,0.4,0.2,0.4,0.5V69.8z"/>
	<path class="st2" d="M210.1,69.8c0,0.4-0.1,0.6-0.4,0.6h-1.4c-0.3,0-0.5-0.2-0.5-0.6V59.1c0-0.8-0.3-1.3-0.9-1.6
		c-0.6-0.3-1.7-0.4-3.2-0.4c-1.3,0-2.5,0.1-3.4,0.2v12.6c0,0.4-0.2,0.6-0.5,0.6h-1.4c-0.3,0-0.4-0.2-0.4-0.5V56
		c0-0.3,0.2-0.5,0.5-0.6c1.5-0.4,3.5-0.6,5.8-0.6c2.2,0,3.8,0.3,4.7,0.9c0.9,0.6,1.3,1.7,1.3,3.2V69.8z"/>
	<path class="st2" d="M226.9,65.2c0,1.7-0.4,3-1.3,4c-0.8,0.9-2,1.4-3.4,1.4c-1.2,0-2.1-0.1-2.7-0.3c-0.2-0.1-0.4-0.3-0.4-0.5v-0.9
		c0-0.3,0.2-0.5,0.7-0.4c0.3,0,0.9,0,1.9,0c1.9,0,2.8-1,2.8-3v-5.3c0-1.1-0.3-1.9-0.9-2.4c-0.5-0.4-1.4-0.6-2.6-0.6h-1.3
		c-1.2,0-2,0.2-2.6,0.5c-0.3,0.2-0.5,0.4-0.5,0.7v11.5c0,0.4-0.2,0.6-0.5,0.6h-1.4c-0.3,0-0.4-0.2-0.4-0.6V58.7c0-0.3-0.1-0.7-0.4-1
		l-0.7-0.8c-0.3-0.3-0.4-0.5-0.4-0.6c0-0.2,0.1-0.4,0.4-0.6l0.7-0.6c0.2-0.2,0.4-0.3,0.5-0.3c0.1,0,0.2,0.1,0.4,0.3l0.5,0.5
		c0.3,0.3,0.6,0.6,1,1.1c0.8-0.8,1.6-1.3,2.3-1.5c0.5-0.1,1.4-0.2,2.7-0.2c3.6,0,5.4,1.7,5.4,5V65.2z"/>
	<path class="st2" d="M233.1,69.8c0,0.4-0.2,0.6-0.5,0.6h-1.4c-0.3,0-0.4-0.2-0.4-0.6V55.5c0-0.3,0.2-0.5,0.5-0.5h1.4
		c0.3,0,0.4,0.2,0.4,0.5V69.8z"/>
	<path class="st2" d="M250,65.2c0,1.7-0.4,3-1.3,4c-0.8,0.9-2,1.4-3.4,1.4c-1.2,0-2.1-0.1-2.7-0.3c-0.2-0.1-0.4-0.3-0.4-0.5v-0.9
		c0-0.3,0.2-0.5,0.7-0.4c0.3,0,0.9,0,1.9,0c1.9,0,2.8-1,2.8-3v-5.3c0-1.1-0.3-1.9-0.9-2.4c-0.5-0.4-1.4-0.6-2.6-0.6h-1.3
		c-1.2,0-2,0.2-2.6,0.5c-0.3,0.2-0.5,0.4-0.5,0.7v11.5c0,0.4-0.2,0.6-0.5,0.6h-1.4c-0.3,0-0.4-0.2-0.4-0.6V58.7c0-0.3-0.1-0.7-0.4-1
		l-0.7-0.8c-0.3-0.3-0.4-0.5-0.4-0.6c0-0.2,0.1-0.4,0.4-0.6l0.7-0.6c0.2-0.2,0.4-0.3,0.5-0.3c0.1,0,0.2,0.1,0.4,0.3l0.5,0.5
		c0.3,0.3,0.6,0.6,1,1.1c0.8-0.8,1.6-1.3,2.3-1.5c0.5-0.1,1.4-0.2,2.7-0.2c3.6,0,5.4,1.7,5.4,5V65.2z"/>
</g>
<path class="st1" d="M308.6,37.3c0,0-1.2-0.3-3.4-0.8c-1.1-0.3-2.5-0.6-4.1-1c-0.4-0.1-0.8-0.2-1.3-0.3c-0.4-0.1-0.9-0.2-1.4-0.4
	c-0.9-0.2-1.9-0.5-2.9-0.8c-8.3-2.2-20-5.4-34.3-8.8c-7.1-1.7-14.9-3.4-23.1-5c-4.1-0.8-8.3-1.6-12.7-2.5c-4.3-0.8-8.8-1.6-13.3-2.4
	c-9-1.6-18.4-3.1-27.9-4.6c-9.5-1.5-19.2-2.9-28.8-4.3c-4.8-0.7-9.7-1.4-14.5-2c-4.8-0.7-9.6-1.3-14.4-1.8c-9.5-1-19-1.4-28.2-1.6
	c-18.3-0.3-35.4,0.5-50,1.7C33.9,4,21.8,5.5,13.3,6.6C4.8,7.8,0,8.6,0,8.6s4.8-0.9,13.3-2.2c8.5-1.3,20.6-2.9,35.2-4.2
	C63.1,0.9,80.2-0.1,98.5,0c9.2,0.1,18.7,0.4,28.3,1.2c2.4,0.2,4.8,0.4,7.2,0.7c1.2,0.1,2.4,0.3,3.6,0.4l3.6,0.5
	c4.8,0.6,9.7,1.2,14.5,1.9c9.7,1.3,19.4,2.6,28.9,4c9.5,1.4,18.9,2.8,28,4.3c4.5,0.7,9,1.5,13.3,2.2c4.3,0.8,8.6,1.5,12.7,2.3
	c8.3,1.6,16.1,3.2,23.2,4.8c14.3,3.2,26.2,6.4,34.5,8.5c4.1,1.1,7.4,1.8,9.6,2.4c2.2,0.5,3.4,0.8,3.4,0.8L308.6,37.3z"/>
<rect x="304.9" y="16.4" class="st0" width="46.7" height="83.6"/>
<path class="st2" d="M342,55c1.2-4.9,3.3-13.2-2.9-18.9c-6.5-6.1-17.5-4.1-23.7-0.6c-3.1-0.8-6.4-1.7-10.7-2.6v3.6
	c4.3,1,7.5,1.8,10.5,2.6l0.7,0.2l0.6-0.4c4.9-3,14.7-5.2,20.1-0.2c4.7,4.4,3.1,10.8,1.9,15.6c-0.2,0.6-0.3,1.2-0.4,1.7
	c-1.1,4.9-0.3,14.4,0.6,25.3l0.1,0.8c0.5,5.8-0.5,8.2-1.4,9.1c-0.6,0.7-1.4,0.9-2.7,0.9c-1.9,0-3-0.2-4.3-3.4
	c-0.2-0.5-0.5-1.8-0.9-3.3c-2-8.1-5.8-23.2-14.3-23.2c-5.1,0-8.4,5.5-11,11.3v13l0.3,0c0.8-5.4,4.7-20.9,10.7-20.9
	c5.8,0,9.5,14.9,10.9,20.5c0.4,1.8,0.8,3,1,3.7c1.8,4.7,4.2,5.6,7.5,5.6c0.8,0,3.3,0,5.2-2c2-2.2,2.7-6,2.3-11.7l-0.1-0.8
	c-0.9-10.2-1.7-19.9-0.7-24.3C341.7,56.1,341.9,55.6,342,55z"/>
<g>
	<path class="st2" d="M30.6,86.4c0,1-0.1,1.8-0.2,2.3c-0.1,0.5-0.4,0.9-0.7,1.3c-0.5,0.6-1.5,0.9-2.7,0.9h-3.2
		c-0.2,0-0.3-0.1-0.3-0.4v-8.2c0-0.2,0.1-0.4,0.4-0.4h3c1.2,0,2.1,0.2,2.6,0.5c0.5,0.3,0.8,0.8,1,1.3C30.6,84.3,30.6,85.2,30.6,86.4
		z M28.9,87.7V85c0-0.7-0.2-1.2-0.5-1.4c-0.3-0.2-0.8-0.3-1.6-0.3H25v6.2h1.9c0.7,0,1.3-0.1,1.5-0.3C28.8,88.9,28.9,88.4,28.9,87.7z
		"/>
	<path class="st2" d="M35.9,84.4l0,1.1c0,0.2-0.1,0.2-0.2,0.2c-0.4-0.2-0.7-0.3-1-0.3c-0.5,0-0.8,0-0.9,0.1
		c-0.1,0.1-0.1,0.2-0.1,0.4v4.8c0,0.2-0.1,0.2-0.2,0.2h-1.2c-0.1,0-0.2-0.1-0.2-0.2v-4.5c0-0.7,0.2-1.2,0.6-1.5
		c0.5-0.4,1.1-0.6,1.9-0.6c0.6,0,1,0,1.2,0.1C35.9,84.2,35.9,84.3,35.9,84.4z"/>
	<path class="st2" d="M38.4,90.1c0,0.4-0.1,0.6-0.2,0.8C38.1,91,37.9,91,37.5,91c-0.4,0-0.6-0.1-0.8-0.2c-0.1-0.1-0.2-0.4-0.2-0.8
		c0-0.4,0.1-0.6,0.2-0.8c0.1-0.2,0.4-0.2,0.8-0.2c0.4,0,0.6,0.1,0.8,0.2C38.4,89.4,38.4,89.7,38.4,90.1z"/>
	<path class="st2" d="M50.3,90.5c0,0.3-0.1,0.4-0.4,0.4h-1c-0.2,0-0.3-0.1-0.3-0.4v-3.6h-3.9v3.6c0,0.3-0.1,0.4-0.4,0.4h-1
		c-0.2,0-0.3-0.1-0.3-0.4v-8.2c0-0.2,0.1-0.4,0.4-0.4h1c0.2,0,0.3,0.1,0.3,0.4v3.2h3.9v-3.3c0-0.2,0.1-0.4,0.4-0.4h1
		c0.2,0,0.3,0.1,0.3,0.4V90.5z"/>
	<path class="st2" d="M57.3,87.9c0,0.2-0.1,0.2-0.3,0.2h-3.5v0.4c0,0.4,0.1,0.7,0.3,0.8c0.2,0.1,0.5,0.2,1.1,0.2
		c0.5,0,1.2,0,1.9-0.1c0.2,0,0.3,0.1,0.3,0.2v0.7c0,0.1-0.1,0.2-0.2,0.2c-0.7,0.2-1.4,0.2-2.1,0.2c-1,0-1.8-0.2-2.1-0.6
		c-0.4-0.5-0.7-1.4-0.7-2.8c0-0.9,0.1-1.6,0.2-2.1c0.1-0.4,0.4-0.8,0.7-1c0.4-0.3,1-0.4,1.8-0.4c0.8,0,1.4,0.1,1.8,0.4
		c0.3,0.2,0.6,0.5,0.7,0.9s0.2,0.9,0.2,1.6V87.9z M55.7,86.2c0-0.3-0.1-0.6-0.2-0.7c-0.1-0.1-0.4-0.2-0.9-0.2c-0.5,0-0.8,0.1-1,0.2
		c-0.1,0.1-0.2,0.4-0.2,0.7V87h2.3V86.2z"/>
	<path class="st2" d="M64.4,90.6c0,0.2-0.1,0.2-0.2,0.2h-1.2c-0.1,0-0.2-0.1-0.2-0.2v-4c0-0.5-0.1-0.8-0.3-1s-0.5-0.3-0.9-0.3h-0.6
		c-0.5,0-0.8,0.1-0.8,0.2v5c0,0.2-0.1,0.2-0.2,0.2h-1.2c-0.1,0-0.2-0.1-0.2-0.2v-6c0-0.2,0.1-0.4,0.3-0.4c0.6-0.1,1.3-0.2,2.3-0.2
		h0.4c1.8,0,2.7,0.8,2.7,2.3V90.6z"/>
	<path class="st2" d="M75.7,88.3c0,1-0.3,1.7-0.9,2.1C74.3,90.8,73.4,91,72,91c-0.5,0-1.3-0.1-2.2-0.3c-0.3-0.1-0.4-0.2-0.4-0.4
		v-0.6c0-0.2,0.2-0.3,0.5-0.3c0.9,0.1,1.6,0.1,2.4,0.1c0.8,0,1.3-0.1,1.5-0.2c0.2-0.1,0.3-0.4,0.3-0.8V88c0-0.6-0.1-0.9-0.4-1
		c-0.1-0.1-0.5-0.1-1.1-0.1h-0.8c-0.9,0-1.6-0.2-2-0.6c-0.3-0.4-0.5-1-0.5-1.9c0-0.4,0-0.7,0.1-1c0.1-0.5,0.4-0.8,0.8-1.1
		c0.5-0.3,1.2-0.5,2.3-0.5c0.9,0,1.7,0.1,2.3,0.2c0.3,0.1,0.4,0.2,0.4,0.4v0.6c0,0.2-0.1,0.2-0.3,0.3c0,0-0.1,0-0.2,0
		c-0.1,0-0.4,0-1,0c-0.5,0-0.9,0-1.2,0c-0.7,0-1.2,0-1.4,0.1s-0.3,0.4-0.3,0.8v0.2c0,0.3,0,0.5,0,0.6c0,0.1,0.1,0.2,0.1,0.3
		c0.1,0.2,0.6,0.2,1.2,0.2h0.5c1.2,0,2,0.2,2.4,0.7C75.5,86.6,75.7,87.3,75.7,88.3z"/>
	<path class="st2" d="M82.5,87.9c0,0.2-0.1,0.2-0.3,0.2h-3.5v0.4c0,0.4,0.1,0.7,0.3,0.8c0.2,0.1,0.5,0.2,1.1,0.2
		c0.5,0,1.2,0,1.9-0.1c0.2,0,0.3,0.1,0.3,0.2v0.7c0,0.1-0.1,0.2-0.2,0.2c-0.7,0.2-1.4,0.2-2.1,0.2c-1,0-1.8-0.2-2.1-0.6
		c-0.4-0.5-0.7-1.4-0.7-2.8c0-0.9,0.1-1.6,0.2-2.1c0.1-0.4,0.4-0.8,0.7-1c0.4-0.3,1-0.4,1.8-0.4c0.8,0,1.4,0.1,1.8,0.4
		c0.3,0.2,0.6,0.5,0.7,0.9s0.2,0.9,0.2,1.6V87.9z M80.9,86.2c0-0.3-0.1-0.6-0.2-0.7c-0.1-0.1-0.4-0.2-0.9-0.2c-0.5,0-0.8,0.1-1,0.2
		c-0.1,0.1-0.2,0.4-0.2,0.7V87h2.3V86.2z"/>
	<path class="st2" d="M89.4,91.2c0,0.9-0.3,1.5-0.8,1.9c-0.5,0.4-1.1,0.5-2,0.5c-0.9,0-1.5-0.1-2-0.2c-0.2-0.1-0.3-0.2-0.3-0.3v-0.6
		c0-0.2,0.1-0.2,0.3-0.2c0.7,0.1,1.3,0.1,1.8,0.1c1,0,1.5-0.4,1.5-1.1c0-0.1,0-0.1,0-0.2l-0.1-0.8c-0.2,0.2-0.4,0.4-0.5,0.4
		c-0.2,0.1-0.5,0.1-0.8,0.1h-0.3c-1.5,0-2.3-0.8-2.3-2.4v-1.6c0-1.8,0.8-2.8,2.5-2.8h0.7c0.7,0,1.3,0,1.8,0.1c0.3,0,0.5,0.2,0.5,0.5
		V91.2z M87.8,88.9v-3.3c0-0.1-0.1-0.2-0.4-0.3c0,0-0.2,0-0.5,0h-0.5c-0.7,0-1.1,0.4-1.1,1.2v1.7c0,0.4,0.1,0.7,0.2,0.9
		c0.2,0.2,0.4,0.3,0.8,0.3h0.4C87.5,89.6,87.8,89.4,87.8,88.9z"/>
	<path class="st2" d="M96.8,90.4c0,0.1-0.1,0.2-0.3,0.3l-0.4,0.1c-0.2,0.1-0.4,0.1-0.6,0.1c-0.3,0-0.5-0.2-0.8-0.7
		c-0.2,0.3-0.3,0.5-0.4,0.6c-0.2,0.1-0.5,0.2-0.9,0.2h-0.7c-1.3,0-2-0.7-2-2v-0.2c0-1.4,0.7-2,2.1-2h0.6c0.5,0,0.8,0.2,1,0.5h0.1
		v-0.8c0-0.4-0.1-0.6-0.3-0.8c-0.2-0.1-0.6-0.2-1.1-0.2c-0.2,0-0.7,0-1.6,0.1c-0.2,0-0.3,0-0.3-0.1v-0.8c0-0.1,0.1-0.2,0.3-0.3
		c0.7-0.1,1.3-0.2,1.9-0.2c0.9,0,1.5,0.1,1.8,0.4c0.5,0.4,0.8,1.1,0.8,2V89c0,0.3,0.1,0.5,0.4,0.6l0.2,0c0.1,0,0.2,0.1,0.2,0.2V90.4
		z M94.5,89.1v-0.6c0-0.4-0.3-0.6-0.9-0.6h-0.5c-0.3,0-0.5,0.1-0.7,0.2c-0.1,0.1-0.2,0.3-0.2,0.6v0.3c0,0.3,0.1,0.5,0.2,0.6
		c0.1,0.1,0.3,0.2,0.6,0.2h0.6C94.2,89.6,94.5,89.5,94.5,89.1z"/>
	<path class="st2" d="M100.1,90.5c0,0.1-0.1,0.2-0.3,0.3l-0.4,0.1c-0.2,0.1-0.4,0.1-0.6,0.1c-0.4,0-0.6-0.1-0.8-0.4
		c-0.2-0.2-0.2-0.6-0.2-0.9v-8.1c0-0.2,0.1-0.2,0.2-0.2h1.2c0.1,0,0.2,0.1,0.2,0.2v7.8c0,0.3,0.1,0.4,0.4,0.5l0.2,0
		c0.1,0,0.2,0.1,0.2,0.3V90.5z"/>
	<path class="st2" d="M102.4,89.4l-0.3,0.9c-0.2,0.6-0.6,1.3-1.3,2c-0.1,0.1-0.2,0.2-0.3,0.2c-0.1,0-0.1,0-0.2,0c0,0,0-0.1,0-0.2
		l0.7-3c0.1-0.3,0.2-0.4,0.5-0.4h0.6c0.2,0,0.3,0.1,0.3,0.3C102.5,89.3,102.5,89.4,102.4,89.4z"/>
	<path class="st2" d="M114.3,86.4c0,1-0.1,1.8-0.2,2.3c-0.1,0.5-0.4,0.9-0.7,1.3c-0.5,0.6-1.5,0.9-2.7,0.9h-3.2
		c-0.2,0-0.3-0.1-0.3-0.4v-8.2c0-0.2,0.1-0.4,0.4-0.4h3c1.2,0,2.1,0.2,2.6,0.5c0.5,0.3,0.8,0.8,1,1.3
		C114.3,84.3,114.3,85.2,114.3,86.4z M112.6,87.7V85c0-0.7-0.2-1.2-0.5-1.4c-0.3-0.2-0.8-0.3-1.6-0.3h-1.8v6.2h1.9
		c0.7,0,1.3-0.1,1.5-0.3C112.5,88.9,112.6,88.4,112.6,87.7z"/>
	<path class="st2" d="M117.4,90.1c0,0.4-0.1,0.6-0.2,0.8c-0.1,0.1-0.4,0.2-0.7,0.2c-0.4,0-0.6-0.1-0.8-0.2c-0.1-0.1-0.2-0.4-0.2-0.8
		c0-0.4,0.1-0.6,0.2-0.8c0.1-0.2,0.4-0.2,0.8-0.2c0.4,0,0.6,0.1,0.8,0.2C117.3,89.4,117.4,89.7,117.4,90.1z"/>
	<path class="st2" d="M125.9,86.4c0,1-0.1,1.8-0.2,2.3c-0.1,0.5-0.4,0.9-0.7,1.3c-0.5,0.6-1.5,0.9-2.7,0.9H119
		c-0.2,0-0.3-0.1-0.3-0.4v-8.2c0-0.2,0.1-0.4,0.4-0.4h3c1.2,0,2.1,0.2,2.6,0.5c0.5,0.3,0.8,0.8,1,1.3
		C125.8,84.3,125.9,85.2,125.9,86.4z M124.2,87.7V85c0-0.7-0.2-1.2-0.5-1.4c-0.3-0.2-0.8-0.3-1.6-0.3h-1.8v6.2h1.9
		c0.7,0,1.3-0.1,1.5-0.3C124,88.9,124.2,88.4,124.2,87.7z"/>
	<path class="st2" d="M128.9,90.1c0,0.4-0.1,0.6-0.2,0.8c-0.1,0.1-0.4,0.2-0.7,0.2c-0.4,0-0.6-0.1-0.8-0.2c-0.1-0.1-0.2-0.4-0.2-0.8
		c0-0.4,0.1-0.6,0.2-0.8c0.1-0.2,0.4-0.2,0.8-0.2c0.4,0,0.6,0.1,0.8,0.2C128.9,89.4,128.9,89.7,128.9,90.1z"/>
	<path class="st2" d="M136.6,88.3c0,1-0.3,1.7-0.9,2.1c-0.5,0.4-1.5,0.6-2.9,0.6c-0.5,0-1.3-0.1-2.2-0.3c-0.3-0.1-0.4-0.2-0.4-0.4
		v-0.6c0-0.2,0.2-0.3,0.5-0.3c0.9,0.1,1.6,0.1,2.4,0.1c0.8,0,1.3-0.1,1.5-0.2c0.2-0.1,0.3-0.4,0.3-0.8V88c0-0.6-0.1-0.9-0.4-1
		c-0.1-0.1-0.5-0.1-1.1-0.1h-0.8c-0.9,0-1.6-0.2-2-0.6c-0.3-0.4-0.5-1-0.5-1.9c0-0.4,0-0.7,0.1-1c0.1-0.5,0.4-0.8,0.8-1.1
		c0.5-0.3,1.2-0.5,2.3-0.5c0.9,0,1.7,0.1,2.3,0.2c0.3,0.1,0.4,0.2,0.4,0.4v0.6c0,0.2-0.1,0.2-0.3,0.3c0,0-0.1,0-0.2,0
		c-0.1,0-0.4,0-1,0c-0.5,0-0.9,0-1.2,0c-0.7,0-1.2,0-1.4,0.1s-0.3,0.4-0.3,0.8v0.2c0,0.3,0,0.5,0,0.6c0,0.1,0.1,0.2,0.1,0.3
		c0.1,0.2,0.6,0.2,1.2,0.2h0.5c1.2,0,2,0.2,2.4,0.7C136.4,86.6,136.6,87.3,136.6,88.3z"/>
	<path class="st2" d="M148.5,90.5c0.1,0.1,0.1,0.1,0.1,0.2c0,0.1-0.1,0.2-0.3,0.2H147c-0.2,0-0.4-0.1-0.6-0.3l-2.3-3.3
		c-0.4,0-0.7,0-0.7,0s-0.1,0-0.2-0.1v3.3c0,0.3-0.1,0.4-0.4,0.4h-1c-0.2,0-0.3-0.1-0.3-0.4v-8.2c0-0.2,0.1-0.4,0.4-0.4h3.7
		c0.7,0,1.3,0.2,1.7,0.6c0.5,0.4,0.7,1,0.7,1.8v0.5c0,1.4-0.7,2.2-2.1,2.4L148.5,90.5z M146.4,84.6c0-0.5,0-0.8-0.1-0.9
		c-0.1-0.2-0.4-0.4-0.9-0.4h-2.2v2.6h2.2c0.4,0,0.7-0.1,0.9-0.3C146.3,85.4,146.4,85.1,146.4,84.6z"/>
	<path class="st2" d="M155.1,87.4c0,1.2-0.2,2.1-0.6,2.6c-0.5,0.6-1.3,1-2.4,1h0c-1.2,0-2-0.3-2.4-0.9c-0.3-0.5-0.5-1.3-0.5-2.5
		c0-1.2,0.1-2,0.4-2.5c0.4-0.7,1.3-1.1,2.5-1.1h0c1.3,0,2.1,0.3,2.5,1C155,85.4,155.1,86.2,155.1,87.4z M153.5,88.1V87
		c0-0.7-0.1-1.2-0.3-1.4c-0.2-0.2-0.5-0.3-1-0.3H152c-0.5,0-0.8,0.1-1,0.3s-0.2,0.6-0.2,1.3v1.2c0,0.6,0.1,1.1,0.2,1.2
		c0.2,0.2,0.5,0.3,1.1,0.3h0.1c0.5,0,0.9-0.1,1-0.3C153.5,89.2,153.5,88.7,153.5,88.1z"/>
	<path class="st2" d="M162.1,87.4c0,1.2-0.2,2.1-0.6,2.6c-0.5,0.6-1.3,1-2.4,1h0c-1.2,0-2-0.3-2.4-0.9c-0.3-0.5-0.5-1.3-0.5-2.5
		c0-1.2,0.1-2,0.4-2.5c0.4-0.7,1.3-1.1,2.5-1.1h0c1.3,0,2.1,0.3,2.5,1C161.9,85.4,162.1,86.2,162.1,87.4z M160.5,88.1V87
		c0-0.7-0.1-1.2-0.3-1.4c-0.2-0.2-0.5-0.3-1-0.3H159c-0.5,0-0.8,0.1-1,0.3s-0.2,0.6-0.2,1.3v1.2c0,0.6,0.1,1.1,0.2,1.2
		c0.2,0.2,0.5,0.3,1.1,0.3h0.1c0.5,0,0.9-0.1,1-0.3C160.4,89.2,160.5,88.7,160.5,88.1z"/>
	<path class="st2" d="M163.8,82.6c0-0.1,0.1-0.2,0.2-0.2h1.1c0.1,0,0.2,0.1,0.2,0.2v1.6h1.2c0.1,0,0.2,0.1,0.2,0.2v0.9
		c0,0.1-0.1,0.2-0.2,0.2h-1.2v3.4c0,0.3,0,0.5,0.1,0.6c0.1,0.2,0.3,0.3,0.5,0.3s0.5,0,0.6,0c0.2,0,0.2,0,0.2,0.2v0.7
		c0,0.1-0.1,0.2-0.2,0.3c-0.3,0.1-0.7,0.2-1.1,0.2c-1.1,0-1.7-0.6-1.7-1.9v-3.6h-0.7c-0.1,0-0.2-0.1-0.2-0.2v-0.7
		c0-0.1,0.1-0.2,0.2-0.2l0.3-0.1c0.2-0.1,0.4-0.2,0.4-0.4V82.6z"/>
	<path class="st2" d="M177.8,90.3c0,0.2-0.1,0.3-0.4,0.4c-0.7,0.2-1.5,0.2-2.4,0.2c-1.4,0-2.4-0.3-2.9-0.9c-0.3-0.4-0.6-0.8-0.7-1.3
		c-0.1-0.6-0.2-1.3-0.2-2.3c0-1.2,0.1-2.1,0.3-2.7c0.2-0.5,0.5-0.9,1-1.3c0.6-0.4,1.4-0.6,2.6-0.6c0.8,0,1.5,0.1,2.4,0.2
		c0.3,0.1,0.4,0.2,0.4,0.4v0.7c0,0.2-0.2,0.3-0.5,0.3c-0.6-0.1-1.2-0.1-2-0.1c-0.8,0-1.4,0.1-1.8,0.3c-0.4,0.2-0.7,0.7-0.7,1.4v2.7
		c0,0.7,0.2,1.2,0.6,1.4c0.3,0.2,0.9,0.3,1.7,0.3c1.1,0,1.8,0,2.2,0c0.2,0,0.3,0,0.3,0c0.1,0,0.1,0.1,0.1,0.3V90.3z"/>
	<path class="st2" d="M185,90.4c0,0.1-0.1,0.2-0.3,0.3l-0.4,0.1c-0.2,0.1-0.4,0.1-0.6,0.1c-0.3,0-0.5-0.2-0.8-0.7
		c-0.2,0.3-0.3,0.5-0.4,0.6c-0.2,0.1-0.5,0.2-0.9,0.2h-0.7c-1.3,0-2-0.7-2-2v-0.2c0-1.4,0.7-2,2.1-2h0.6c0.5,0,0.8,0.2,1,0.5h0.1
		v-0.8c0-0.4-0.1-0.6-0.3-0.8c-0.2-0.1-0.6-0.2-1.1-0.2c-0.2,0-0.7,0-1.6,0.1c-0.2,0-0.3,0-0.3-0.1v-0.8c0-0.1,0.1-0.2,0.3-0.3
		c0.7-0.1,1.3-0.2,1.9-0.2c0.9,0,1.5,0.1,1.8,0.4c0.5,0.4,0.8,1.1,0.8,2V89c0,0.3,0.1,0.5,0.4,0.6l0.2,0c0.1,0,0.2,0.1,0.2,0.2V90.4
		z M182.7,89.1v-0.6c0-0.4-0.3-0.6-0.9-0.6h-0.5c-0.3,0-0.5,0.1-0.7,0.2c-0.1,0.1-0.2,0.3-0.2,0.6v0.3c0,0.3,0.1,0.5,0.2,0.6
		c0.1,0.1,0.3,0.2,0.6,0.2h0.6C182.4,89.6,182.7,89.5,182.7,89.1z"/>
	<path class="st2" d="M191.7,90.6c0,0.2-0.1,0.2-0.2,0.2h-1.2c-0.1,0-0.2-0.1-0.2-0.2v-4c0-0.5-0.1-0.8-0.3-1s-0.5-0.3-0.9-0.3h-0.6
		c-0.5,0-0.8,0.1-0.8,0.2v5c0,0.2-0.1,0.2-0.2,0.2h-1.2c-0.1,0-0.2-0.1-0.2-0.2v-6c0-0.2,0.1-0.4,0.3-0.4c0.6-0.1,1.3-0.2,2.3-0.2
		h0.4c1.8,0,2.7,0.8,2.7,2.3V90.6z"/>
	<path class="st2" d="M199,90.4c0,0.1-0.1,0.2-0.3,0.3l-0.4,0.1c-0.2,0.1-0.4,0.1-0.6,0.1c-0.3,0-0.5-0.2-0.8-0.7
		c-0.2,0.3-0.3,0.5-0.4,0.6c-0.2,0.1-0.5,0.2-0.9,0.2h-0.7c-1.3,0-2-0.7-2-2v-0.2c0-1.4,0.7-2,2.1-2h0.6c0.5,0,0.8,0.2,1,0.5h0.1
		v-0.8c0-0.4-0.1-0.6-0.3-0.8c-0.2-0.1-0.6-0.2-1.1-0.2c-0.2,0-0.7,0-1.6,0.1c-0.2,0-0.3,0-0.3-0.1v-0.8c0-0.1,0.1-0.2,0.3-0.3
		c0.7-0.1,1.3-0.2,1.9-0.2c0.9,0,1.5,0.1,1.8,0.4c0.5,0.4,0.8,1.1,0.8,2V89c0,0.3,0.1,0.5,0.4,0.6l0.2,0c0.1,0,0.2,0.1,0.2,0.2V90.4
		z M196.7,89.1v-0.6c0-0.4-0.3-0.6-0.9-0.6h-0.5c-0.3,0-0.5,0.1-0.7,0.2c-0.1,0.1-0.2,0.3-0.2,0.6v0.3c0,0.3,0.1,0.5,0.2,0.6
		c0.1,0.1,0.3,0.2,0.6,0.2h0.6C196.4,89.6,196.7,89.5,196.7,89.1z"/>
	<path class="st2" d="M202.3,90.5c0,0.1-0.1,0.2-0.3,0.3l-0.4,0.1c-0.2,0.1-0.4,0.1-0.6,0.1c-0.4,0-0.6-0.1-0.8-0.4
		c-0.2-0.2-0.2-0.6-0.2-0.9v-8.1c0-0.2,0.1-0.2,0.2-0.2h1.2c0.1,0,0.2,0.1,0.2,0.2v7.8c0,0.3,0.1,0.4,0.4,0.5l0.2,0
		c0.1,0,0.2,0.1,0.2,0.3V90.5z"/>
	<path class="st2" d="M213.1,88.3c0,1-0.3,1.7-0.9,2.1c-0.5,0.4-1.5,0.6-2.9,0.6c-0.5,0-1.3-0.1-2.2-0.3c-0.3-0.1-0.4-0.2-0.4-0.4
		v-0.6c0-0.2,0.2-0.3,0.5-0.3c0.9,0.1,1.6,0.1,2.4,0.1c0.8,0,1.3-0.1,1.5-0.2c0.2-0.1,0.3-0.4,0.3-0.8V88c0-0.6-0.1-0.9-0.4-1
		c-0.1-0.1-0.5-0.1-1.1-0.1H209c-0.9,0-1.6-0.2-2-0.6c-0.3-0.4-0.5-1-0.5-1.9c0-0.4,0-0.7,0.1-1c0.1-0.5,0.4-0.8,0.8-1.1
		c0.5-0.3,1.2-0.5,2.3-0.5c0.9,0,1.7,0.1,2.3,0.2c0.3,0.1,0.4,0.2,0.4,0.4v0.6c0,0.2-0.1,0.2-0.3,0.3c0,0-0.1,0-0.2,0
		c-0.1,0-0.4,0-1,0c-0.5,0-0.9,0-1.2,0c-0.7,0-1.2,0-1.4,0.1s-0.3,0.4-0.3,0.8v0.2c0,0.3,0,0.5,0,0.6c0,0.1,0.1,0.2,0.1,0.3
		c0.1,0.2,0.6,0.2,1.2,0.2h0.5c1.2,0,2,0.2,2.4,0.7C212.8,86.6,213.1,87.3,213.1,88.3z"/>
	<path class="st2" d="M220.1,88.3c0,0.8-0.2,1.4-0.7,1.9c-0.4,0.4-1,0.7-1.8,0.7h-0.3c-0.5,0-0.9-0.2-1.2-0.5v3.2
		c0,0.2-0.1,0.2-0.2,0.2h-1.2c-0.1,0-0.2-0.1-0.2-0.2v-8.9c0-0.2,0.1-0.3,0.3-0.4c0.4-0.2,1-0.3,2-0.3h0.7c0.8,0,1.4,0.2,1.8,0.5
		c0.5,0.4,0.8,1,0.8,1.8V88.3z M218.5,88.3v-1.7c0-0.9-0.4-1.3-1.2-1.3h-0.6c-0.5,0-0.7,0.1-0.7,0.2v3.3c0,0.2,0.1,0.4,0.3,0.5
		c0.2,0.1,0.3,0.2,0.5,0.2h0.6C218.1,89.6,218.5,89.2,218.5,88.3z"/>
	<path class="st2" d="M226.8,87.9c0,0.2-0.1,0.2-0.3,0.2H223v0.4c0,0.4,0.1,0.7,0.3,0.8c0.2,0.1,0.5,0.2,1.1,0.2
		c0.5,0,1.2,0,1.9-0.1c0.2,0,0.3,0.1,0.3,0.2v0.7c0,0.1-0.1,0.2-0.2,0.2c-0.7,0.2-1.4,0.2-2.1,0.2c-1,0-1.8-0.2-2.1-0.6
		c-0.4-0.5-0.7-1.4-0.7-2.8c0-0.9,0.1-1.6,0.2-2.1c0.1-0.4,0.4-0.8,0.7-1c0.4-0.3,1-0.4,1.8-0.4c0.8,0,1.4,0.1,1.8,0.4
		c0.3,0.2,0.6,0.5,0.7,0.9s0.2,0.9,0.2,1.6V87.9z M225.2,86.2c0-0.3-0.1-0.6-0.2-0.7c-0.1-0.1-0.4-0.2-0.9-0.2c-0.5,0-0.8,0.1-1,0.2
		c-0.1,0.1-0.2,0.4-0.2,0.7V87h2.3V86.2z"/>
	<path class="st2" d="M232.9,90.5c0,0.1-0.1,0.2-0.2,0.2c-0.5,0.1-1.1,0.2-1.8,0.2c-1.1,0-1.8-0.2-2.2-0.6c-0.5-0.5-0.7-1.4-0.7-2.8
		c0-0.9,0.1-1.6,0.2-2c0.1-0.4,0.4-0.7,0.7-1c0.4-0.3,1-0.4,1.9-0.4c0.6,0,1.1,0.1,1.7,0.2c0.2,0,0.3,0.1,0.3,0.3v0.8
		c0,0.1-0.1,0.2-0.3,0.1c-0.7-0.1-1.2-0.1-1.5-0.1c-0.6,0-0.9,0.1-1.1,0.2c-0.3,0.2-0.4,0.5-0.4,1.1v1.6c0,0.6,0.1,0.9,0.3,1.1
		c0.2,0.1,0.5,0.2,1.1,0.2c0.8,0,1.3,0,1.7,0c0.2,0,0.3,0,0.3,0.2V90.5z"/>
	<path class="st2" d="M235.8,90.7c0,0.1-0.1,0.2-0.2,0.2h-1.1c-0.1,0-0.2-0.1-0.2-0.2v-6.3c0-0.1,0.1-0.2,0.2-0.2h1.1
		c0.1,0,0.2,0.1,0.2,0.2V90.7z M235.8,82.8c0,0.1-0.1,0.2-0.2,0.2h-1.1c-0.1,0-0.2-0.1-0.2-0.2v-1.1c0-0.1,0.1-0.2,0.2-0.2h1.1
		c0.1,0,0.2,0.1,0.2,0.2V82.8z"/>
	<path class="st2" d="M243.2,90.4c0,0.1-0.1,0.2-0.3,0.3l-0.4,0.1c-0.2,0.1-0.4,0.1-0.6,0.1c-0.3,0-0.5-0.2-0.8-0.7
		c-0.2,0.3-0.3,0.5-0.4,0.6c-0.2,0.1-0.5,0.2-0.9,0.2h-0.7c-1.3,0-2-0.7-2-2v-0.2c0-1.4,0.7-2,2.1-2h0.6c0.5,0,0.8,0.2,1,0.5h0.1
		v-0.8c0-0.4-0.1-0.6-0.3-0.8c-0.2-0.1-0.6-0.2-1.1-0.2c-0.2,0-0.7,0-1.6,0.1c-0.2,0-0.3,0-0.3-0.1v-0.8c0-0.1,0.1-0.2,0.3-0.3
		c0.7-0.1,1.3-0.2,1.9-0.2c0.9,0,1.5,0.1,1.8,0.4c0.5,0.4,0.8,1.1,0.8,2V89c0,0.3,0.1,0.5,0.4,0.6l0.2,0c0.1,0,0.2,0.1,0.2,0.2V90.4
		z M241,89.1v-0.6c0-0.4-0.3-0.6-0.9-0.6h-0.5c-0.3,0-0.5,0.1-0.7,0.2c-0.1,0.1-0.2,0.3-0.2,0.6v0.3c0,0.3,0.1,0.5,0.2,0.6
		c0.1,0.1,0.3,0.2,0.6,0.2h0.6C240.7,89.6,241,89.5,241,89.1z"/>
	<path class="st2" d="M246.5,90.5c0,0.1-0.1,0.2-0.3,0.3l-0.4,0.1c-0.2,0.1-0.4,0.1-0.6,0.1c-0.4,0-0.6-0.1-0.8-0.4
		c-0.2-0.2-0.2-0.6-0.2-0.9v-8.1c0-0.2,0.1-0.2,0.2-0.2h1.2c0.1,0,0.2,0.1,0.2,0.2v7.8c0,0.3,0.1,0.4,0.4,0.5l0.2,0
		c0.1,0,0.2,0.1,0.2,0.3V90.5z"/>
	<path class="st2" d="M249,90.7c0,0.1-0.1,0.2-0.2,0.2h-1.1c-0.1,0-0.2-0.1-0.2-0.2v-6.3c0-0.1,0.1-0.2,0.2-0.2h1.1
		c0.1,0,0.2,0.1,0.2,0.2V90.7z M249,82.8c0,0.1-0.1,0.2-0.2,0.2h-1.1c-0.1,0-0.2-0.1-0.2-0.2v-1.1c0-0.1,0.1-0.2,0.2-0.2h1.1
		c0.1,0,0.2,0.1,0.2,0.2V82.8z"/>
	<path class="st2" d="M255.3,88.9c0,0.7-0.3,1.3-0.8,1.7c-0.4,0.3-1.1,0.4-2,0.4c-0.4,0-1-0.1-1.7-0.2c-0.2,0-0.3-0.1-0.3-0.3v-0.7
		c0-0.2,0.1-0.2,0.3-0.2c0.5,0,1,0.1,1.5,0.1c0.5,0,0.8,0,0.9,0c0.3-0.1,0.5-0.3,0.5-0.6v-0.2c0-0.4-0.1-0.6-0.3-0.7
		c-0.1,0-0.3-0.1-0.6-0.1h-0.5c-0.7,0-1.1-0.2-1.4-0.5c-0.3-0.3-0.4-0.8-0.4-1.5c0-0.7,0.2-1.2,0.7-1.5c0.4-0.2,0.9-0.4,1.7-0.4
		c0.7,0,1.3,0,1.7,0.1c0.2,0,0.3,0.1,0.3,0.3v0.7c0,0.1-0.1,0.2-0.3,0.2c0,0-0.3,0-0.9,0c-0.5,0-0.8,0-1,0c-0.3,0-0.5,0.1-0.6,0.2
		c-0.1,0.1-0.1,0.2-0.1,0.5v0.2c0,0.2,0.1,0.4,0.2,0.5c0.1,0.1,0.3,0.1,0.5,0.1h0.3c0.9,0,1.5,0.2,1.8,0.5
		C255.1,87.6,255.3,88.1,255.3,88.9z"/>
	<path class="st2" d="M257.1,82.6c0-0.1,0.1-0.2,0.2-0.2h1.1c0.1,0,0.2,0.1,0.2,0.2v1.6h1.2c0.1,0,0.2,0.1,0.2,0.2v0.9
		c0,0.1-0.1,0.2-0.2,0.2h-1.2v3.4c0,0.3,0,0.5,0.1,0.6c0.1,0.2,0.3,0.3,0.5,0.3s0.5,0,0.6,0c0.2,0,0.2,0,0.2,0.2v0.7
		c0,0.1-0.1,0.2-0.2,0.3c-0.3,0.1-0.7,0.2-1.1,0.2c-1.1,0-1.7-0.6-1.7-1.9v-3.6h-0.7c-0.1,0-0.2-0.1-0.2-0.2v-0.7
		c0-0.1,0.1-0.2,0.2-0.2l0.3-0.1c0.2-0.1,0.4-0.2,0.4-0.4V82.6z"/>
</g>
</svg>
