<?xml version="1.0" encoding="utf-8"?>
<!-- Generator: Adobe Illustrator 19.2.1, SVG Export Plug-In . SVG Version: 6.00 Build 0)  -->
<svg version="1.1" id="Layer_1" xmlns="http://www.w3.org/2000/svg" xmlns:xlink="http://www.w3.org/1999/xlink" x="0px" y="0px"
	 viewBox="0 0 409.3 117.8" style="enable-background:new 0 0 409.3 117.8;" xml:space="preserve">
<style type="text/css">
	.st0{fill:#FFFFFF;}
	.st1{fill:#37D6C0;}
</style>
<g>
	<g>
		<path class="st0" d="M54.7,110.1c0,1-0.1,1.8-0.2,2.3c-0.1,0.5-0.4,0.9-0.7,1.3c-0.5,0.6-1.5,0.9-2.7,0.9h-3.2
			c-0.2,0-0.3-0.1-0.3-0.4V106c0-0.2,0.1-0.4,0.4-0.4h3c1.2,0,2.1,0.2,2.6,0.5s0.8,0.8,1,1.3C54.6,108,54.7,108.9,54.7,110.1z
			 M52.9,111.4v-2.7c0-0.7-0.2-1.2-0.5-1.4c-0.3-0.2-0.8-0.3-1.6-0.3h-1.8v6.2H51c0.7,0,1.3-0.1,1.5-0.3
			C52.8,112.6,52.9,112.1,52.9,111.4z"/>
		<path class="st0" d="M60,108.1l0,1.1c0,0.2-0.1,0.2-0.2,0.2c-0.4-0.2-0.7-0.3-1-0.3c-0.5,0-0.8,0-0.9,0.1
			c-0.1,0.1-0.1,0.2-0.1,0.4v4.8c0,0.2-0.1,0.2-0.2,0.2h-1.2c-0.1,0-0.2-0.1-0.2-0.2v-4.5c0-0.7,0.2-1.2,0.6-1.5
			c0.5-0.4,1.1-0.6,1.9-0.6c0.6,0,1,0,1.2,0.1C59.9,107.9,60,108,60,108.1z"/>
		<path class="st0" d="M62.5,113.8c0,0.4-0.1,0.6-0.2,0.8c-0.1,0.1-0.4,0.2-0.7,0.2c-0.4,0-0.6-0.1-0.8-0.2
			c-0.1-0.1-0.2-0.4-0.2-0.8c0-0.4,0.1-0.6,0.2-0.8c0.1-0.2,0.4-0.2,0.8-0.2c0.4,0,0.6,0.1,0.8,0.2
			C62.4,113.1,62.5,113.4,62.5,113.8z"/>
		<path class="st0" d="M74.3,114.2c0,0.3-0.1,0.4-0.4,0.4h-1c-0.2,0-0.3-0.1-0.3-0.4v-3.6h-3.9v3.6c0,0.3-0.1,0.4-0.4,0.4h-1
			c-0.2,0-0.3-0.1-0.3-0.4V106c0-0.2,0.1-0.4,0.4-0.4h1c0.2,0,0.3,0.1,0.3,0.4v3.2h3.9V106c0-0.2,0.1-0.4,0.4-0.4h1
			c0.2,0,0.3,0.1,0.3,0.4V114.2z"/>
		<path class="st0" d="M81.3,111.6c0,0.2-0.1,0.2-0.3,0.2h-3.5v0.4c0,0.4,0.1,0.7,0.3,0.8c0.2,0.1,0.5,0.2,1.1,0.2
			c0.5,0,1.2,0,1.9-0.1c0.2,0,0.3,0.1,0.3,0.2v0.7c0,0.1-0.1,0.2-0.2,0.2c-0.7,0.2-1.4,0.2-2.1,0.2c-1,0-1.8-0.2-2.1-0.6
			c-0.4-0.5-0.7-1.4-0.7-2.8c0-0.9,0.1-1.6,0.2-2.1c0.1-0.4,0.4-0.8,0.7-1c0.4-0.3,1-0.4,1.8-0.4c0.8,0,1.4,0.1,1.8,0.4
			c0.3,0.2,0.6,0.5,0.7,0.9s0.2,0.9,0.2,1.6V111.6z M79.7,109.9c0-0.3-0.1-0.6-0.2-0.7s-0.4-0.2-0.9-0.2c-0.5,0-0.8,0.1-1,0.2
			c-0.1,0.1-0.2,0.4-0.2,0.7v0.7h2.3V109.9z"/>
		<path class="st0" d="M88.5,114.3c0,0.2-0.1,0.2-0.2,0.2h-1.2c-0.1,0-0.2-0.1-0.2-0.2v-4c0-0.5-0.1-0.8-0.3-1s-0.5-0.3-0.9-0.3
			h-0.6c-0.5,0-0.8,0.1-0.8,0.2v5c0,0.2-0.1,0.2-0.2,0.2H83c-0.1,0-0.2-0.1-0.2-0.2v-6c0-0.2,0.1-0.4,0.3-0.4
			c0.6-0.1,1.3-0.2,2.3-0.2h0.4c1.8,0,2.7,0.8,2.7,2.3V114.3z"/>
		<path class="st0" d="M99.8,112c0,1-0.3,1.7-0.9,2.1c-0.5,0.4-1.5,0.6-2.9,0.6c-0.5,0-1.3-0.1-2.2-0.3c-0.3-0.1-0.4-0.2-0.4-0.4
			v-0.6c0-0.2,0.2-0.3,0.5-0.3c0.9,0.1,1.6,0.1,2.4,0.1c0.8,0,1.3-0.1,1.5-0.2c0.2-0.1,0.3-0.4,0.3-0.8v-0.5c0-0.6-0.1-0.9-0.4-1
			c-0.1-0.1-0.5-0.1-1.1-0.1h-0.8c-0.9,0-1.6-0.2-2-0.6c-0.3-0.4-0.5-1-0.5-1.9c0-0.4,0-0.7,0.1-1c0.1-0.5,0.4-0.8,0.8-1.1
			c0.5-0.3,1.2-0.5,2.3-0.5c0.9,0,1.7,0.1,2.3,0.2c0.3,0.1,0.4,0.2,0.4,0.4v0.6c0,0.2-0.1,0.3-0.3,0.3c0,0-0.1,0-0.2,0
			c-0.1,0-0.4,0-1,0c-0.5,0-0.9,0-1.2,0c-0.7,0-1.2,0-1.4,0.1s-0.3,0.4-0.3,0.8v0.2c0,0.3,0,0.5,0,0.6s0.1,0.2,0.1,0.3
			c0.1,0.2,0.6,0.2,1.2,0.2h0.5c1.2,0,2,0.2,2.4,0.7C99.6,110.3,99.8,111,99.8,112z"/>
		<path class="st0" d="M106.5,111.6c0,0.2-0.1,0.2-0.3,0.2h-3.5v0.4c0,0.4,0.1,0.7,0.3,0.8c0.2,0.1,0.5,0.2,1.1,0.2
			c0.5,0,1.2,0,1.9-0.1c0.2,0,0.3,0.1,0.3,0.2v0.7c0,0.1-0.1,0.2-0.2,0.2c-0.7,0.2-1.4,0.2-2.1,0.2c-1,0-1.8-0.2-2.1-0.6
			c-0.4-0.5-0.7-1.4-0.7-2.8c0-0.9,0.1-1.6,0.2-2.1c0.1-0.4,0.4-0.8,0.7-1c0.4-0.3,1-0.4,1.8-0.4c0.8,0,1.4,0.1,1.8,0.4
			c0.3,0.2,0.6,0.5,0.7,0.9s0.2,0.9,0.2,1.6V111.6z M104.9,109.9c0-0.3-0.1-0.6-0.2-0.7s-0.4-0.2-0.9-0.2c-0.5,0-0.8,0.1-1,0.2
			c-0.1,0.1-0.2,0.4-0.2,0.7v0.7h2.3V109.9z"/>
		<path class="st0" d="M113.4,114.9c0,0.9-0.3,1.5-0.8,1.9c-0.5,0.4-1.1,0.5-2,0.5c-0.9,0-1.5-0.1-2-0.2c-0.2-0.1-0.3-0.2-0.3-0.3
			v-0.6c0-0.2,0.1-0.2,0.3-0.2c0.7,0.1,1.3,0.1,1.8,0.1c1,0,1.5-0.4,1.5-1.1c0-0.1,0-0.1,0-0.2l-0.1-0.8c-0.2,0.2-0.4,0.4-0.5,0.4
			c-0.2,0.1-0.5,0.1-0.8,0.1h-0.3c-1.5,0-2.3-0.8-2.3-2.4v-1.6c0-1.8,0.8-2.8,2.5-2.8h0.7c0.7,0,1.3,0,1.8,0.1
			c0.3,0,0.5,0.2,0.5,0.5V114.9z M111.9,112.7v-3.3c0-0.1-0.1-0.2-0.4-0.3c0,0-0.2,0-0.5,0h-0.5c-0.7,0-1.1,0.4-1.1,1.2v1.7
			c0,0.4,0.1,0.7,0.2,0.9c0.2,0.2,0.4,0.3,0.8,0.3h0.4C111.5,113.3,111.9,113.1,111.9,112.7z"/>
		<path class="st0" d="M120.8,114.1c0,0.1-0.1,0.2-0.3,0.3l-0.4,0.1c-0.2,0.1-0.4,0.1-0.6,0.1c-0.3,0-0.5-0.2-0.8-0.7
			c-0.2,0.3-0.3,0.5-0.4,0.6c-0.2,0.1-0.5,0.2-0.9,0.2h-0.7c-1.3,0-2-0.7-2-2v-0.2c0-1.4,0.7-2,2.1-2h0.6c0.5,0,0.8,0.2,1,0.5h0.1
			V110c0-0.4-0.1-0.6-0.3-0.8c-0.2-0.1-0.6-0.2-1.1-0.2c-0.2,0-0.7,0-1.6,0.1c-0.2,0-0.3,0-0.3-0.1v-0.8c0-0.1,0.1-0.2,0.3-0.3
			c0.7-0.1,1.3-0.2,1.9-0.2c0.9,0,1.5,0.1,1.8,0.4c0.5,0.4,0.8,1.1,0.8,2v2.6c0,0.3,0.1,0.5,0.4,0.6l0.2,0c0.1,0,0.2,0.1,0.2,0.2
			V114.1z M118.6,112.8v-0.6c0-0.4-0.3-0.6-0.9-0.6h-0.5c-0.3,0-0.5,0.1-0.7,0.2c-0.1,0.1-0.2,0.3-0.2,0.6v0.3
			c0,0.3,0.1,0.5,0.2,0.6c0.1,0.1,0.3,0.2,0.6,0.2h0.6C118.2,113.4,118.6,113.2,118.6,112.8z"/>
		<path class="st0" d="M124.1,114.2c0,0.1-0.1,0.2-0.3,0.3l-0.4,0.1c-0.2,0.1-0.4,0.1-0.6,0.1c-0.4,0-0.6-0.1-0.8-0.4
			c-0.2-0.2-0.2-0.6-0.2-0.9v-8.1c0-0.2,0.1-0.2,0.2-0.2h1.2c0.1,0,0.2,0.1,0.2,0.2v7.8c0,0.3,0.1,0.4,0.4,0.5l0.2,0
			c0.1,0,0.2,0.1,0.2,0.3V114.2z"/>
		<path class="st0" d="M126.5,113.2l-0.3,0.9c-0.2,0.6-0.6,1.3-1.3,2c-0.1,0.1-0.2,0.2-0.3,0.2c-0.1,0-0.1,0-0.2,0c0,0,0-0.1,0-0.2
			l0.7-3c0.1-0.3,0.2-0.4,0.5-0.4h0.6c0.2,0,0.3,0.1,0.3,0.3C126.5,113,126.5,113.1,126.5,113.2z"/>
		<path class="st0" d="M138.4,110.1c0,1-0.1,1.8-0.2,2.3c-0.1,0.5-0.4,0.9-0.7,1.3c-0.5,0.6-1.5,0.9-2.7,0.9h-3.2
			c-0.2,0-0.3-0.1-0.3-0.4V106c0-0.2,0.1-0.4,0.4-0.4h3c1.2,0,2.1,0.2,2.6,0.5s0.8,0.8,1,1.3C138.3,108,138.4,108.9,138.4,110.1z
			 M136.6,111.4v-2.7c0-0.7-0.2-1.2-0.5-1.4c-0.3-0.2-0.8-0.3-1.6-0.3h-1.8v6.2h1.9c0.7,0,1.3-0.1,1.5-0.3
			C136.5,112.6,136.6,112.1,136.6,111.4z"/>
		<path class="st0" d="M141.4,113.8c0,0.4-0.1,0.6-0.2,0.8c-0.1,0.1-0.4,0.2-0.7,0.2c-0.4,0-0.6-0.1-0.8-0.2
			c-0.1-0.1-0.2-0.4-0.2-0.8c0-0.4,0.1-0.6,0.2-0.8c0.1-0.2,0.4-0.2,0.8-0.2c0.4,0,0.6,0.1,0.8,0.2
			C141.3,113.1,141.4,113.4,141.4,113.8z"/>
		<path class="st0" d="M149.9,110.1c0,1-0.1,1.8-0.2,2.3c-0.1,0.5-0.4,0.9-0.7,1.3c-0.5,0.6-1.5,0.9-2.7,0.9H143
			c-0.2,0-0.3-0.1-0.3-0.4V106c0-0.2,0.1-0.4,0.4-0.4h3c1.2,0,2.1,0.2,2.6,0.5s0.8,0.8,1,1.3C149.9,108,149.9,108.9,149.9,110.1z
			 M148.2,111.4v-2.7c0-0.7-0.2-1.2-0.5-1.4c-0.3-0.2-0.8-0.3-1.6-0.3h-1.8v6.2h1.9c0.7,0,1.3-0.1,1.5-0.3
			C148.1,112.6,148.2,112.1,148.2,111.4z"/>
		<path class="st0" d="M153,113.8c0,0.4-0.1,0.6-0.2,0.8c-0.1,0.1-0.4,0.2-0.7,0.2c-0.4,0-0.6-0.1-0.8-0.2c-0.1-0.1-0.2-0.4-0.2-0.8
			c0-0.4,0.1-0.6,0.2-0.8c0.1-0.2,0.4-0.2,0.8-0.2c0.4,0,0.6,0.1,0.8,0.2C152.9,113.1,153,113.4,153,113.8z"/>
		<path class="st0" d="M160.7,112c0,1-0.3,1.7-0.9,2.1c-0.5,0.4-1.5,0.6-2.9,0.6c-0.5,0-1.3-0.1-2.2-0.3c-0.3-0.1-0.4-0.2-0.4-0.4
			v-0.6c0-0.2,0.2-0.3,0.5-0.3c0.9,0.1,1.6,0.1,2.4,0.1c0.8,0,1.3-0.1,1.5-0.2c0.2-0.1,0.3-0.4,0.3-0.8v-0.5c0-0.6-0.1-0.9-0.4-1
			c-0.1-0.1-0.5-0.1-1.1-0.1h-0.8c-0.9,0-1.6-0.2-2-0.6c-0.3-0.4-0.5-1-0.5-1.9c0-0.4,0-0.7,0.1-1c0.1-0.5,0.4-0.8,0.8-1.1
			c0.5-0.3,1.2-0.5,2.3-0.5c0.9,0,1.7,0.1,2.3,0.2c0.3,0.1,0.4,0.2,0.4,0.4v0.6c0,0.2-0.1,0.3-0.3,0.3c0,0-0.1,0-0.2,0
			c-0.1,0-0.4,0-1,0c-0.5,0-0.9,0-1.2,0c-0.7,0-1.2,0-1.4,0.1s-0.3,0.4-0.3,0.8v0.2c0,0.3,0,0.5,0,0.6s0.1,0.2,0.1,0.3
			c0.1,0.2,0.6,0.2,1.2,0.2h0.5c1.2,0,2,0.2,2.4,0.7C160.4,110.3,160.7,111,160.7,112z"/>
		<path class="st0" d="M172.5,114.2c0.1,0.1,0.1,0.1,0.1,0.2c0,0.1-0.1,0.2-0.3,0.2H171c-0.2,0-0.4-0.1-0.6-0.3l-2.3-3.3
			c-0.4,0-0.7,0-0.7,0s-0.1,0-0.2-0.1v3.3c0,0.3-0.1,0.4-0.4,0.4h-1c-0.2,0-0.3-0.1-0.3-0.4V106c0-0.2,0.1-0.4,0.4-0.4h3.7
			c0.7,0,1.3,0.2,1.7,0.6c0.5,0.4,0.7,1,0.7,1.8v0.5c0,1.4-0.7,2.2-2.1,2.4L172.5,114.2z M170.4,108.3c0-0.5,0-0.8-0.1-0.9
			c-0.1-0.2-0.4-0.4-0.9-0.4h-2.2v2.6h2.2c0.4,0,0.7-0.1,0.9-0.3C170.3,109.1,170.4,108.8,170.4,108.3z"/>
		<path class="st0" d="M179.2,111.1c0,1.2-0.2,2.1-0.6,2.6c-0.5,0.6-1.3,1-2.4,1h0c-1.2,0-2-0.3-2.4-0.9c-0.3-0.5-0.5-1.3-0.5-2.5
			c0-1.2,0.1-2,0.4-2.5c0.4-0.7,1.3-1.1,2.5-1.1h0c1.3,0,2.1,0.3,2.5,1C179,109.2,179.2,109.9,179.2,111.1z M177.6,111.8v-1.1
			c0-0.7-0.1-1.2-0.3-1.4c-0.2-0.2-0.5-0.3-1-0.3h-0.2c-0.5,0-0.8,0.1-1,0.3s-0.2,0.6-0.2,1.3v1.2c0,0.6,0.1,1.1,0.2,1.2
			c0.2,0.2,0.5,0.3,1.1,0.3h0.1c0.5,0,0.9-0.1,1-0.3S177.6,112.5,177.6,111.8z"/>
		<path class="st0" d="M186.1,111.1c0,1.2-0.2,2.1-0.6,2.6c-0.5,0.6-1.3,1-2.4,1h0c-1.2,0-2-0.3-2.4-0.9c-0.3-0.5-0.5-1.3-0.5-2.5
			c0-1.2,0.1-2,0.4-2.5c0.4-0.7,1.3-1.1,2.5-1.1h0c1.3,0,2.1,0.3,2.5,1C186,109.2,186.1,109.9,186.1,111.1z M184.5,111.8v-1.1
			c0-0.7-0.1-1.2-0.3-1.4c-0.2-0.2-0.5-0.3-1-0.3H183c-0.5,0-0.8,0.1-1,0.3s-0.2,0.6-0.2,1.3v1.2c0,0.6,0.1,1.1,0.2,1.2
			c0.2,0.2,0.5,0.3,1.1,0.3h0.1c0.5,0,0.9-0.1,1-0.3S184.5,112.5,184.5,111.8z"/>
		<path class="st0" d="M187.8,106.3c0-0.1,0.1-0.2,0.2-0.2h1.1c0.1,0,0.2,0.1,0.2,0.2v1.6h1.2c0.1,0,0.2,0.1,0.2,0.2v0.9
			c0,0.1-0.1,0.2-0.2,0.2h-1.2v3.4c0,0.3,0,0.5,0.1,0.6c0.1,0.2,0.3,0.3,0.5,0.3s0.5,0,0.6,0c0.2,0,0.2,0,0.2,0.2v0.7
			c0,0.1-0.1,0.2-0.2,0.3c-0.3,0.1-0.7,0.2-1.1,0.2c-1.1,0-1.7-0.6-1.7-1.9v-3.6h-0.7c-0.1,0-0.2-0.1-0.2-0.2v-0.7
			c0-0.1,0.1-0.2,0.2-0.2l0.3-0.1c0.2-0.1,0.4-0.2,0.4-0.4V106.3z"/>
		<path class="st0" d="M201.8,114c0,0.2-0.1,0.3-0.4,0.4c-0.7,0.2-1.5,0.2-2.4,0.2c-1.4,0-2.4-0.3-2.9-0.9c-0.3-0.4-0.6-0.8-0.7-1.3
			c-0.1-0.6-0.2-1.3-0.2-2.3c0-1.2,0.1-2.1,0.3-2.7c0.2-0.5,0.5-0.9,1-1.3c0.6-0.4,1.4-0.6,2.6-0.6c0.8,0,1.5,0.1,2.4,0.2
			c0.3,0.1,0.4,0.2,0.4,0.4v0.7c0,0.2-0.2,0.3-0.5,0.3c-0.6-0.1-1.2-0.1-2-0.1c-0.8,0-1.4,0.1-1.8,0.3c-0.4,0.2-0.7,0.7-0.7,1.4v2.7
			c0,0.7,0.2,1.2,0.6,1.4c0.3,0.2,0.9,0.3,1.7,0.3c1.1,0,1.8,0,2.2,0c0.2,0,0.3,0,0.3,0c0.1,0,0.1,0.1,0.1,0.3V114z"/>
		<path class="st0" d="M209,114.1c0,0.1-0.1,0.2-0.3,0.3l-0.4,0.1c-0.2,0.1-0.4,0.1-0.6,0.1c-0.3,0-0.5-0.2-0.8-0.7
			c-0.2,0.3-0.3,0.5-0.4,0.6c-0.2,0.1-0.5,0.2-0.9,0.2h-0.7c-1.3,0-2-0.7-2-2v-0.2c0-1.4,0.7-2,2.1-2h0.6c0.5,0,0.8,0.2,1,0.5h0.1
			V110c0-0.4-0.1-0.6-0.3-0.8c-0.2-0.1-0.6-0.2-1.1-0.2c-0.2,0-0.7,0-1.6,0.1c-0.2,0-0.3,0-0.3-0.1v-0.8c0-0.1,0.1-0.2,0.3-0.3
			c0.7-0.1,1.3-0.2,1.9-0.2c0.9,0,1.5,0.1,1.8,0.4c0.5,0.4,0.8,1.1,0.8,2v2.6c0,0.3,0.1,0.5,0.4,0.6l0.2,0c0.1,0,0.2,0.1,0.2,0.2
			V114.1z M206.8,112.8v-0.6c0-0.4-0.3-0.6-0.9-0.6h-0.5c-0.3,0-0.5,0.1-0.7,0.2c-0.1,0.1-0.2,0.3-0.2,0.6v0.3
			c0,0.3,0.1,0.5,0.2,0.6c0.1,0.1,0.3,0.2,0.6,0.2h0.6C206.4,113.4,206.8,113.2,206.8,112.8z"/>
		<path class="st0" d="M215.7,114.3c0,0.2-0.1,0.2-0.2,0.2h-1.2c-0.1,0-0.2-0.1-0.2-0.2v-4c0-0.5-0.1-0.8-0.3-1s-0.5-0.3-0.9-0.3
			h-0.6c-0.5,0-0.8,0.1-0.8,0.2v5c0,0.2-0.1,0.2-0.2,0.2h-1.2c-0.1,0-0.2-0.1-0.2-0.2v-6c0-0.2,0.1-0.4,0.3-0.4
			c0.6-0.1,1.3-0.2,2.3-0.2h0.4c1.8,0,2.7,0.8,2.7,2.3V114.3z"/>
		<path class="st0" d="M223,114.1c0,0.1-0.1,0.2-0.3,0.3l-0.4,0.1c-0.2,0.1-0.4,0.1-0.6,0.1c-0.3,0-0.5-0.2-0.8-0.7
			c-0.2,0.3-0.3,0.5-0.4,0.6c-0.2,0.1-0.5,0.2-0.9,0.2h-0.7c-1.3,0-2-0.7-2-2v-0.2c0-1.4,0.7-2,2.1-2h0.6c0.5,0,0.8,0.2,1,0.5h0.1
			V110c0-0.4-0.1-0.6-0.3-0.8c-0.2-0.1-0.6-0.2-1.1-0.2c-0.2,0-0.7,0-1.6,0.1c-0.2,0-0.3,0-0.3-0.1v-0.8c0-0.1,0.1-0.2,0.3-0.3
			c0.7-0.1,1.3-0.2,1.9-0.2c0.9,0,1.5,0.1,1.8,0.4c0.5,0.4,0.8,1.1,0.8,2v2.6c0,0.3,0.1,0.5,0.4,0.6l0.2,0c0.1,0,0.2,0.1,0.2,0.2
			V114.1z M220.7,112.8v-0.6c0-0.4-0.3-0.6-0.9-0.6h-0.5c-0.3,0-0.5,0.1-0.7,0.2c-0.1,0.1-0.2,0.3-0.2,0.6v0.3
			c0,0.3,0.1,0.5,0.2,0.6c0.1,0.1,0.3,0.2,0.6,0.2h0.6C220.4,113.4,220.7,113.2,220.7,112.8z"/>
		<path class="st0" d="M226.3,114.2c0,0.1-0.1,0.2-0.3,0.3l-0.4,0.1c-0.2,0.1-0.4,0.1-0.6,0.1c-0.4,0-0.6-0.1-0.8-0.4
			c-0.2-0.2-0.2-0.6-0.2-0.9v-8.1c0-0.2,0.1-0.2,0.2-0.2h1.2c0.1,0,0.2,0.1,0.2,0.2v7.8c0,0.3,0.1,0.4,0.4,0.5l0.2,0
			c0.1,0,0.2,0.1,0.2,0.3V114.2z"/>
		<path class="st0" d="M237.1,112c0,1-0.3,1.7-0.9,2.1c-0.5,0.4-1.5,0.6-2.9,0.6c-0.5,0-1.3-0.1-2.2-0.3c-0.3-0.1-0.4-0.2-0.4-0.4
			v-0.6c0-0.2,0.2-0.3,0.5-0.3c0.9,0.1,1.6,0.1,2.4,0.1c0.8,0,1.3-0.1,1.5-0.2c0.2-0.1,0.3-0.4,0.3-0.8v-0.5c0-0.6-0.1-0.9-0.4-1
			c-0.1-0.1-0.5-0.1-1.1-0.1H233c-0.9,0-1.6-0.2-2-0.6c-0.3-0.4-0.5-1-0.5-1.9c0-0.4,0-0.7,0.1-1c0.1-0.5,0.4-0.8,0.8-1.1
			c0.5-0.3,1.2-0.5,2.3-0.5c0.9,0,1.7,0.1,2.3,0.2c0.3,0.1,0.4,0.2,0.4,0.4v0.6c0,0.2-0.1,0.3-0.3,0.3c0,0-0.1,0-0.2,0
			c-0.1,0-0.4,0-1,0c-0.5,0-0.9,0-1.2,0c-0.7,0-1.2,0-1.3,0.1s-0.3,0.4-0.3,0.8v0.2c0,0.3,0,0.5,0,0.6s0.1,0.2,0.1,0.3
			c0.1,0.2,0.6,0.2,1.2,0.2h0.5c1.2,0,2,0.2,2.4,0.7C236.9,110.3,237.1,111,237.1,112z"/>
		<path class="st0" d="M244.1,112.1c0,0.8-0.2,1.4-0.6,1.9c-0.4,0.4-1,0.7-1.8,0.7h-0.3c-0.5,0-0.9-0.2-1.2-0.5v3.2
			c0,0.2-0.1,0.2-0.2,0.2h-1.2c-0.1,0-0.2-0.1-0.2-0.2v-8.9c0-0.2,0.1-0.3,0.3-0.4c0.4-0.2,1-0.3,2-0.3h0.7c0.8,0,1.4,0.2,1.8,0.5
			c0.5,0.4,0.8,1,0.8,1.8V112.1z M242.5,112.1v-1.7c0-0.9-0.4-1.3-1.2-1.3h-0.6c-0.5,0-0.7,0.1-0.7,0.2v3.3c0,0.2,0.1,0.4,0.3,0.5
			c0.2,0.1,0.3,0.2,0.5,0.2h0.6C242.2,113.4,242.5,112.9,242.5,112.1z"/>
		<path class="st0" d="M250.8,111.6c0,0.2-0.1,0.2-0.3,0.2H247v0.4c0,0.4,0.1,0.7,0.3,0.8c0.2,0.1,0.5,0.2,1.1,0.2
			c0.5,0,1.2,0,1.9-0.1c0.2,0,0.3,0.1,0.3,0.2v0.7c0,0.1-0.1,0.2-0.2,0.2c-0.7,0.2-1.4,0.2-2.1,0.2c-1,0-1.8-0.2-2.1-0.6
			c-0.4-0.5-0.7-1.4-0.7-2.8c0-0.9,0.1-1.6,0.2-2.1c0.1-0.4,0.4-0.8,0.7-1c0.4-0.3,1-0.4,1.8-0.4c0.8,0,1.4,0.1,1.8,0.4
			c0.3,0.2,0.6,0.5,0.7,0.9s0.2,0.9,0.2,1.6V111.6z M249.2,109.9c0-0.3-0.1-0.6-0.2-0.7c-0.1-0.1-0.4-0.2-0.9-0.2
			c-0.5,0-0.8,0.1-1,0.2c-0.1,0.1-0.2,0.4-0.2,0.7v0.7h2.3V109.9z"/>
		<path class="st0" d="M256.9,114.2c0,0.1-0.1,0.2-0.2,0.2c-0.5,0.1-1.1,0.2-1.8,0.2c-1.1,0-1.8-0.2-2.2-0.6
			c-0.5-0.5-0.7-1.4-0.7-2.8c0-0.9,0.1-1.6,0.2-2c0.1-0.4,0.4-0.7,0.7-1c0.4-0.3,1-0.4,1.9-0.4c0.6,0,1.1,0.1,1.7,0.2
			c0.2,0,0.3,0.1,0.3,0.3v0.8c0,0.1-0.1,0.2-0.3,0.1c-0.7-0.1-1.2-0.1-1.5-0.1c-0.6,0-0.9,0.1-1.1,0.2c-0.3,0.2-0.4,0.5-0.4,1.1v1.6
			c0,0.6,0.1,0.9,0.3,1.1c0.2,0.1,0.5,0.2,1.1,0.2c0.8,0,1.3,0,1.7,0c0.2,0,0.3,0,0.3,0.2V114.2z"/>
		<path class="st0" d="M259.8,114.4c0,0.1-0.1,0.2-0.2,0.2h-1.1c-0.1,0-0.2-0.1-0.2-0.2v-6.3c0-0.1,0.1-0.2,0.2-0.2h1.1
			c0.1,0,0.2,0.1,0.2,0.2V114.4z M259.8,106.5c0,0.1-0.1,0.2-0.2,0.2h-1.1c-0.1,0-0.2-0.1-0.2-0.2v-1.1c0-0.1,0.1-0.2,0.2-0.2h1.1
			c0.1,0,0.2,0.1,0.2,0.2V106.5z"/>
		<path class="st0" d="M267.2,114.1c0,0.1-0.1,0.2-0.3,0.3l-0.4,0.1c-0.2,0.1-0.4,0.1-0.6,0.1c-0.3,0-0.5-0.2-0.8-0.7
			c-0.2,0.3-0.3,0.5-0.4,0.6c-0.2,0.1-0.5,0.2-0.9,0.2h-0.7c-1.3,0-2-0.7-2-2v-0.2c0-1.4,0.7-2,2.1-2h0.6c0.5,0,0.8,0.2,1,0.5h0.1
			V110c0-0.4-0.1-0.6-0.3-0.8c-0.2-0.1-0.6-0.2-1.1-0.2c-0.2,0-0.7,0-1.6,0.1c-0.2,0-0.3,0-0.3-0.1v-0.8c0-0.1,0.1-0.2,0.3-0.3
			c0.7-0.1,1.3-0.2,1.9-0.2c0.9,0,1.5,0.1,1.8,0.4c0.5,0.4,0.8,1.1,0.8,2v2.6c0,0.3,0.1,0.5,0.4,0.6l0.2,0c0.1,0,0.2,0.1,0.2,0.2
			V114.1z M265,112.8v-0.6c0-0.4-0.3-0.6-0.9-0.6h-0.5c-0.3,0-0.5,0.1-0.7,0.2c-0.1,0.1-0.2,0.3-0.2,0.6v0.3c0,0.3,0.1,0.5,0.2,0.6
			c0.1,0.1,0.3,0.2,0.6,0.2h0.6C264.7,113.4,265,113.2,265,112.8z"/>
		<path class="st0" d="M270.6,114.2c0,0.1-0.1,0.2-0.3,0.3l-0.4,0.1c-0.2,0.1-0.4,0.1-0.6,0.1c-0.4,0-0.6-0.1-0.8-0.4
			c-0.2-0.2-0.2-0.6-0.2-0.9v-8.1c0-0.2,0.1-0.2,0.2-0.2h1.2c0.1,0,0.2,0.1,0.2,0.2v7.8c0,0.3,0.1,0.4,0.4,0.5l0.2,0
			c0.1,0,0.2,0.1,0.2,0.3V114.2z"/>
		<path class="st0" d="M273.1,114.4c0,0.1-0.1,0.2-0.2,0.2h-1.1c-0.1,0-0.2-0.1-0.2-0.2v-6.3c0-0.1,0.1-0.2,0.2-0.2h1.1
			c0.1,0,0.2,0.1,0.2,0.2V114.4z M273.1,106.5c0,0.1-0.1,0.2-0.2,0.2h-1.1c-0.1,0-0.2-0.1-0.2-0.2v-1.1c0-0.1,0.1-0.2,0.2-0.2h1.1
			c0.1,0,0.2,0.1,0.2,0.2V106.5z"/>
		<path class="st0" d="M279.4,112.6c0,0.7-0.3,1.3-0.8,1.7c-0.4,0.3-1.1,0.4-2,0.4c-0.4,0-1-0.1-1.7-0.2c-0.2,0-0.3-0.1-0.3-0.3
			v-0.7c0-0.2,0.1-0.2,0.3-0.2c0.5,0,1,0.1,1.5,0.1c0.5,0,0.8,0,0.9,0c0.3-0.1,0.5-0.3,0.5-0.6v-0.2c0-0.4-0.1-0.6-0.3-0.7
			c-0.1,0-0.3-0.1-0.6-0.1h-0.5c-0.7,0-1.1-0.2-1.4-0.5c-0.3-0.3-0.4-0.8-0.4-1.5c0-0.7,0.2-1.2,0.7-1.5c0.4-0.2,0.9-0.4,1.7-0.4
			c0.7,0,1.3,0,1.7,0.1c0.2,0,0.3,0.1,0.3,0.3v0.7c0,0.1-0.1,0.2-0.3,0.2c0,0-0.3,0-0.9,0c-0.5,0-0.8,0-1,0c-0.3,0-0.5,0.1-0.6,0.2
			c-0.1,0.1-0.1,0.2-0.1,0.5v0.2c0,0.2,0.1,0.4,0.2,0.5c0.1,0.1,0.3,0.1,0.5,0.1h0.3c0.9,0,1.5,0.2,1.8,0.5
			C279.2,111.3,279.4,111.8,279.4,112.6z"/>
		<path class="st0" d="M281.1,106.3c0-0.1,0.1-0.2,0.2-0.2h1.1c0.1,0,0.2,0.1,0.2,0.2v1.6h1.2c0.1,0,0.2,0.1,0.2,0.2v0.9
			c0,0.1-0.1,0.2-0.2,0.2h-1.2v3.4c0,0.3,0,0.5,0.1,0.6c0.1,0.2,0.3,0.3,0.5,0.3s0.5,0,0.6,0c0.2,0,0.2,0,0.2,0.2v0.7
			c0,0.1-0.1,0.2-0.2,0.3c-0.3,0.1-0.7,0.2-1.1,0.2c-1.1,0-1.7-0.6-1.7-1.9v-3.6h-0.7c-0.1,0-0.2-0.1-0.2-0.2v-0.7
			c0-0.1,0.1-0.2,0.2-0.2l0.3-0.1c0.2-0.1,0.4-0.2,0.4-0.4V106.3z"/>
	</g>
	<g>
		<path class="st0" d="M39.9,57.2c0,0.5-0.2,0.8-0.7,0.8H25.5c-0.5,0-0.7-0.3-0.7-0.8V43.8h-0.8c-0.5,0-0.8-0.2-0.8-0.7v-1.9
			c0-0.5,0.2-0.8,0.7-0.8c2.8-0.2,5.6-0.3,8.3-0.3c3,0,5,0.4,6.1,1.2s1.7,2.4,1.7,4.7V57.2z M35.9,54.3V46c0-1-0.3-1.7-0.9-2
			c-0.5-0.2-1.5-0.4-3-0.4h-3.2v10.7H35.9z"/>
		<path class="st0" d="M47.5,49.9c0,0.3,0,0.6-0.1,0.6c-0.1,0.1-0.3,0.1-0.6,0.1h-2.6c-0.5,0-0.7-0.3-0.7-0.8v-9.1
			c0-0.5,0.2-0.7,0.7-0.7h2.6c0.4,0,0.6,0,0.6,0.1c0.1,0.1,0.1,0.3,0.1,0.7V49.9z"/>
		<path class="st0" d="M54.8,49.9c0,0.3,0,0.6-0.1,0.6c-0.1,0.1-0.3,0.1-0.6,0.1h-2.6c-0.5,0-0.7-0.3-0.7-0.8v-9.1
			c0-0.5,0.2-0.7,0.7-0.7h2.6c0.4,0,0.6,0,0.6,0.1c0.1,0.1,0.1,0.3,0.1,0.7V49.9z"/>
		<path class="st0" d="M65.9,57c0,0.4-0.1,0.7-0.2,0.8S65.4,58,65,58h-6.7c-0.3,0-0.5-0.1-0.6-0.2c-0.1-0.1-0.1-0.3-0.1-0.6v-2.1
			c0-0.3,0.1-0.6,0.2-0.6c0.1-0.1,0.3-0.1,0.6-0.1h3.6v-8.8c0-0.7-0.1-1.3-0.4-1.5c-0.3-0.3-0.8-0.4-1.6-0.4c-0.3,0-0.7,0-1.2,0.1
			c-0.5,0.1-0.7-0.1-0.7-0.6v-1.8c0-0.3,0-0.5,0.1-0.6c0-0.1,0.2-0.2,0.5-0.3c0.4-0.2,1.2-0.3,2.3-0.3c1.7,0,3,0.4,3.8,1.2
			c0.8,0.8,1.2,2.2,1.2,4.1V57z"/>
		<path class="st0" d="M73.4,49.9c0,0.3,0,0.6-0.1,0.6c-0.1,0.1-0.3,0.1-0.6,0.1h-2.6c-0.5,0-0.7-0.3-0.7-0.8v-9.1
			c0-0.5,0.2-0.7,0.7-0.7h2.6c0.4,0,0.6,0,0.6,0.1c0.1,0.1,0.1,0.3,0.1,0.7V49.9z"/>
		<path class="st0" d="M96.5,41.2l-2.2,10.7c-0.9,4.2-3.3,6.3-7.4,6.3h-2.2c-1.8,0-3.3-0.5-4.3-1.4c-1.1-0.9-1.8-2.4-2.2-4.4
			l-2.1-11.2c-0.1-0.7,0-1.1,0.5-1.1h2.9c0.4,0,0.6,0.3,0.8,1l1.4,8.4l0.2-0.1c0.8-0.4,1.3-1.2,1.5-2.5l1-5.9c0.1-0.6,0.4-1,0.8-1
			h2.7c0.4,0,0.6,0.1,0.6,0.3c0,0.1,0,0.4-0.1,0.8l-1,5.6c-0.3,1.7-1.1,2.8-2.3,3.5l-2.8,1.5l0.2,1.2c0.3,1.2,1.1,1.7,2.4,1.7h1.9
			c1.9,0,3-0.9,3.4-2.6L92.4,41c0.1-0.6,0.4-0.9,0.8-0.9H96C96.5,40.2,96.6,40.5,96.5,41.2z"/>
		<path class="st0" d="M122.3,57.3c0,0.4-0.1,0.7-0.4,0.7h-3.1c-0.4,0-0.6-0.1-0.8-0.2c0,0-0.2-0.2-0.5-0.6l-5.8-8.1
			c-0.1,0-0.3,0.7-0.6,2.1l-1.1,5.9c-0.1,0.6-0.4,0.9-0.9,0.9h-2.4c-0.5,0-0.7-0.3-0.7-0.9v-0.2l0.8-4.2c0.4-1.9,1-3.2,1.8-4
			l1.7-1.6l-4.1-5.5c-0.2-0.3-0.3-0.5-0.3-0.7c0-0.5,0.2-0.7,0.5-0.7h3.1c0.3,0,0.7,0.2,1,0.7l5.4,7.2c0.2-0.2,0.4-0.9,0.6-2l0.9-5
			c0.1-0.6,0.4-0.9,0.8-0.9h2.6c0.6,0,0.9,0.2,0.9,0.5c0,0.1,0,0.3-0.1,0.7l-0.6,3.1c-0.4,1.8-1.1,3.1-2.1,4.1l-1.7,1.5l4.8,6.6
			C122.2,56.9,122.3,57.1,122.3,57.3z"/>
		<path class="st0" d="M139.1,51.7c0,4.3-2.5,6.5-7.5,6.5c-2.6,0-4.6-0.2-6.2-0.6c-0.4-0.1-0.7-0.4-0.7-1v-1.5
			c0-0.6,0.2-0.9,0.7-0.8c1.9,0.2,3.8,0.3,5.6,0.3c1.6,0,2.6-0.2,3.1-0.6c0.5-0.4,0.8-1,0.8-1.9v-6.8c0-0.8-0.3-1.3-0.8-1.5
			c-0.4-0.2-1.2-0.3-2.4-0.3c-1.4,0-2.4,0-3,0.1v3.5c0,0.2,0,0.3,0,0.4c0,0.1,0.2,0.1,0.4,0.1h2.5c0.4,0,0.7,0.2,0.7,0.7V50
			c0,0.6-0.4,0.9-1.3,0.9h-4.7c-0.6,0-1,0-1.1-0.1c-0.3-0.2-0.5-0.6-0.5-1.3v-7.9c0-0.5,0.3-0.8,0.9-0.9c1.8-0.4,3.8-0.6,6-0.6
			c3.1,0,5.2,0.5,6.2,1.6c0.9,0.9,1.3,2.4,1.3,4.4V51.7z"/>
		<path class="st0" d="M146.7,57.1c0,0.4-0.1,0.6-0.2,0.7c-0.1,0.1-0.3,0.1-0.6,0.1h-2.6c-0.5,0-0.7-0.3-0.7-0.9V41
			c0-0.6,0.2-0.9,0.7-0.9h2.6c0.3,0,0.5,0.1,0.6,0.2c0.1,0.1,0.1,0.4,0.1,0.7V57.1z"/>
		<path class="st0" d="M162.2,57.1c0,0.4-0.1,0.6-0.2,0.7c-0.1,0.1-0.3,0.1-0.6,0.1h-2.5c-0.5,0-0.8-0.3-0.8-0.9v-11
			c0-1.1-0.4-1.8-1.1-2.1c-0.4-0.2-1.3-0.3-2.5-0.3c-1.6,0-3.1,0.1-4.5,0.2c-0.5,0-0.7-0.2-0.7-0.6v-1.8c0-0.3,0-0.5,0.1-0.6
			c0-0.1,0.2-0.2,0.5-0.2c1.1-0.4,3-0.5,5.7-0.5c2.2,0,3.8,0.4,4.8,1.1c1.2,0.9,1.8,2.5,1.8,4.6V57.1z"/>
		<path class="st0" d="M176,54.9l-0.6,2c-0.4,1.3-1.3,2.8-2.8,4.4c-0.3,0.3-0.5,0.4-0.7,0.4c-0.2,0-0.4-0.1-0.4-0.2
			c0-0.1,0-0.2,0-0.4l1.4-6.3c0.2-0.6,0.5-0.9,1.1-0.9h1.2C175.9,53.9,176.1,54.3,176,54.9z"/>
		<path class="st0" d="M192.6,41.5L187.3,57c-0.2,0.6-0.5,0.9-0.9,0.9h-2.9c-0.3,0-0.4-0.2-0.4-0.5c0-0.2,0.1-0.5,0.2-0.8l4.4-12.8
			h-8.7c-0.5,0-0.7-0.3-0.7-0.8v-7.8c0-0.5,0.3-0.7,0.8-0.7h2.6c0.5,0,0.7,0.3,0.7,0.9v4.8h9.7c0.5,0,0.8,0.2,0.8,0.7
			C192.8,41,192.7,41.2,192.6,41.5z"/>
		<path class="st0" d="M204.7,57.1c0,0.6-0.2,0.9-0.5,0.9h-2.8c-0.3,0-0.5-0.3-0.5-0.8v-3.7c0-0.2-0.1-0.3-0.3-0.3
			c-0.2,0-0.4,0.1-0.4,0.4l-0.4,1.5c-0.2,0.7-0.4,1.2-0.7,1.5c-0.7,0.7-1.5,1.2-2.4,1.5c-0.5,0.1-0.9,0.2-1.1,0.2
			c-0.5,0-0.7-0.2-0.7-0.6v-2.4c0-0.4,0.2-0.6,0.5-0.7c1-0.4,1.8-0.9,2.5-1.3c1.1-0.7,1.8-1.3,2.1-1.7c0.5-0.6,0.8-1.3,0.8-2v-4.1
			c0-0.7-0.2-1.2-0.6-1.4c-0.3-0.2-1-0.3-1.9-0.3c-0.9,0-1.4,0-1.7,0.1c-0.5,0.1-0.8-0.1-0.8-0.6v-1.8c0-0.4,0.2-0.7,0.6-0.8
			c0.8-0.3,1.8-0.4,3.2-0.4c1.9,0,3.2,0.4,4,1.1c0.9,0.9,1.3,2.1,1.3,3.7V57.1z"/>
		<path class="st0" d="M223.8,48.8c0,3.1-0.5,5.3-1.5,6.7c-1.3,1.8-3.4,2.7-6.3,2.7h0c-3.1,0-5.3-0.9-6.5-2.6
			c-0.9-1.3-1.3-3.5-1.3-6.5c0-3.2,0.3-5.4,1-6.5c1.1-1.9,3.4-2.8,6.9-2.8h0c4.1,0,6.5,1.3,7.3,4C223.7,45,223.8,46.7,223.8,48.8z
			 M219.7,50.8v-3.7c0-1.3-0.2-2.2-0.7-2.8c-0.5-0.7-1.4-1-2.7-1h-1c-1.2,0-2.1,0.3-2.5,0.9c-0.4,0.5-0.6,1.4-0.6,2.7v3.9
			c0,1.3,0.2,2.3,0.6,2.8c0.5,0.7,1.5,1,2.8,1h0.7C218.6,54.7,219.7,53.4,219.7,50.8z"/>
		<path class="st0" d="M238.5,64.6c0,0.5-0.3,0.8-0.8,0.8h-2.6c-0.5,0-0.7-0.3-0.7-0.8V41c0-0.5,0.3-0.8,0.8-0.8h2.6
			c0.3,0,0.5,0,0.6,0.1s0.1,0.3,0.1,0.8V64.6z"/>
		<path class="st0" d="M257.3,57.2c0,0.5-0.2,0.8-0.7,0.8h-2.6c-0.3,0-0.5,0-0.6-0.1c-0.1-0.1-0.1-0.3-0.1-0.7V46
			c0-0.9-0.2-1.6-0.6-1.9c-0.4-0.3-1.2-0.5-2.4-0.5c-2.1,0-3.4,0-3.8,0.1v13.4c0,0.5-0.3,0.8-0.8,0.8h-2.6c-0.3,0-0.5,0-0.6-0.1
			c-0.1-0.1-0.1-0.3-0.1-0.7V41.2c0-0.5,0.3-0.7,0.9-0.8c2.1-0.2,4.6-0.4,7.6-0.4c2.3,0,4,0.4,5,1.3c1,0.8,1.5,2.3,1.5,4.3V57.2z"/>
		<path class="st0" d="M279.9,57.1c0,0.4-0.1,0.6-0.2,0.7c-0.1,0.1-0.3,0.1-0.6,0.1h-2.5c-0.5,0-0.8-0.3-0.8-0.9v-11
			c0-1.1-0.4-1.8-1.1-2.1c-0.5-0.2-1.3-0.3-2.5-0.3c-1.6,0-3.1,0.1-4.5,0.2c-0.5,0-0.7-0.2-0.7-0.6v-1.8c0-0.3,0-0.5,0.1-0.6
			s0.2-0.2,0.5-0.2c1.1-0.4,3-0.5,5.7-0.5c2.2,0,3.8,0.4,4.8,1.1c1.2,0.9,1.8,2.5,1.8,4.6V57.1z"/>
		<path class="st0" d="M282.5,44.9l0.5-2.4c0.4-1.6,1.3-3.2,2.8-4.7c0.3-0.3,0.5-0.4,0.7-0.4c0.3,0,0.4,0.2,0.3,0.6l-1.4,7.1
			c-0.1,0.6-0.5,0.9-1.1,0.9h-1.2C282.5,45.9,282.3,45.6,282.5,44.9z M287,44.9l0.6-2.4c0.4-1.6,1.3-3.2,2.8-4.7
			c0.3-0.3,0.5-0.4,0.7-0.4c0.3,0,0.4,0.2,0.3,0.6L290,45c-0.1,0.6-0.5,0.9-1.1,0.9h-1.2C287.1,45.9,286.8,45.6,287,44.9z"/>
		<path class="st0" d="M307.8,42.6c0,0.5-0.2,0.7-0.6,0.8l-2,0.4v13.3c0,0.4-0.1,0.6-0.2,0.7c-0.1,0.1-0.3,0.1-0.6,0.1h-2.5
			c-0.5,0-0.8-0.3-0.8-0.9V43.8h-7.3c-0.5,0-0.8-0.3-0.8-0.8V41c0-0.5,0.3-0.8,0.8-0.8h13.3c0.4,0,0.7,0.2,0.7,0.7V42.6z"/>
	</g>
	<g>
		<path class="st0" d="M56.1,77.7l-2.4,11.6c-0.4,2.2-1.3,3.7-2.7,4.6c-1.1,0.8-2.7,1.1-4.8,1.1H45c-1.9,0-3.3-0.4-4.3-1.1
			c-1-0.9-1.7-2.2-2.1-4.2l-2-12c-0.1-0.4,0.1-0.6,0.4-0.6h1.8c0.4,0,0.6,0.2,0.7,0.6l1.5,10.1l0.7-0.2c1.2-0.4,2-1.4,2.2-3l1-6.7
			c0.1-0.4,0.3-0.6,0.7-0.6h1.8c0.3,0,0.5,0.2,0.4,0.6l-1.2,6.8c-0.4,2-1.4,3.3-3.1,4l-2.2,0.9l0.1,0.7c0.3,1.8,1.4,2.6,3.4,2.6h1.7
			c2.4,0,3.8-1,4.3-3.1l2.5-12.1c0-0.3,0.2-0.4,0.5-0.4h1.9C56,77.1,56.2,77.3,56.1,77.7z"/>
		<path class="st0" d="M72,94.3c0,0.4-0.2,0.6-0.6,0.6h-1.6c-0.4,0-0.6-0.2-0.6-0.5V82.2c0-1-0.3-1.7-0.9-2.1
			c-0.7-0.5-1.9-0.7-3.8-0.7c-1.7,0-3.2,0.1-4.5,0.3c-0.5,0.1-0.8,0-0.8-0.4v-1c0-0.4,0.2-0.6,0.5-0.7c1.2-0.4,2.9-0.6,5.3-0.6
			c4.6,0,6.9,1.8,6.9,5.3V94.3z"/>
		<path class="st0" d="M79.6,94.2c0,0.4-0.2,0.6-0.6,0.6h-1.7c-0.4,0-0.5-0.2-0.5-0.6V77.6c0-0.4,0.2-0.6,0.6-0.6h1.7
			c0.4,0,0.5,0.2,0.5,0.6V94.2z"/>
		<path class="st0" d="M102.8,77.7l-2.4,11.6c-0.4,2.2-1.3,3.7-2.7,4.6c-1.1,0.8-2.7,1.1-4.8,1.1h-1.2c-1.9,0-3.3-0.4-4.3-1.1
			c-1-0.9-1.7-2.2-2.1-4.2l-2-12c-0.1-0.4,0.1-0.6,0.4-0.6h1.8c0.4,0,0.6,0.2,0.7,0.6l1.5,10.1l0.7-0.2c1.2-0.4,2-1.4,2.2-3l1-6.7
			c0.1-0.4,0.3-0.6,0.7-0.6h1.8c0.3,0,0.5,0.2,0.4,0.6l-1.2,6.8c-0.4,2-1.4,3.3-3.1,4l-2.2,0.9l0.1,0.7c0.3,1.8,1.4,2.6,3.4,2.6h1.7
			c2.4,0,3.8-1,4.3-3.1l2.5-12.1c0-0.3,0.2-0.4,0.5-0.4h1.9C102.7,77.1,102.9,77.3,102.8,77.7z"/>
		<path class="st0" d="M116.8,86.6c0,0.4-0.2,0.6-0.5,0.6h-1.7c-0.4,0-0.5-0.2-0.5-0.6v-8.9c0-0.4,0.2-0.6,0.5-0.6h1.7
			c0.3,0,0.5,0.2,0.5,0.6V86.6z"/>
		<path class="st0" d="M133.8,78.4L128.1,94c-0.2,0.6-0.5,0.9-0.7,0.9h-1.9c-0.4,0-0.5-0.2-0.3-0.7l5.4-14.7h-9.8
			c-0.3,0-0.5-0.2-0.5-0.6V72c0-0.3,0-0.4,0.1-0.5c0.1-0.1,0.2-0.1,0.4-0.1h1.6c0.4,0,0.6,0.2,0.6,0.6v5.1h10.4
			c0.3,0,0.5,0.2,0.5,0.7C133.9,78,133.8,78.2,133.8,78.4z"/>
		<path class="st0" d="M140.6,94.2c0,0.4-0.2,0.6-0.6,0.6h-1.7c-0.4,0-0.5-0.2-0.5-0.6V77.6c0-0.4,0.2-0.6,0.6-0.6h1.7
			c0.4,0,0.5,0.2,0.5,0.6V94.2z"/>
		<path class="st0" d="M159.3,88.6c0,2.1-0.5,3.7-1.5,4.7c-1.1,1.1-2.9,1.7-5.4,1.7c-2.3,0-4.5-0.2-6.6-0.6
			c-0.4-0.1-0.6-0.3-0.6-0.5v-1.1c0-0.3,0.2-0.5,0.6-0.5c2.5,0.2,4.8,0.3,6.7,0.3c1.5,0,2.6-0.3,3.2-0.8c0.5-0.4,0.7-1.1,0.7-2.1
			v-7.2c0-1.2-0.2-2-0.7-2.5c-0.5-0.5-1.4-0.7-2.8-0.7c-2.7,0-4.3,0-4.9,0.1v5.3c0,0.1,0.1,0.1,0.2,0.1h3.8c0.4,0,0.6,0.2,0.6,0.5
			v1.3c0,0.4-0.2,0.5-0.6,0.5h-5.9c-0.5,0-0.8-0.3-0.8-0.9v-8.1c0-0.3,0.3-0.5,0.9-0.6c1.7-0.4,3.7-0.6,5.8-0.6c3,0,4.9,0.5,5.9,1.6
			c0.9,1,1.4,2.5,1.4,4.4V88.6z"/>
		<path class="st0" d="M166.4,86.6c0,0.4-0.2,0.6-0.5,0.6h-1.7c-0.4,0-0.5-0.2-0.5-0.6v-8.9c0-0.4,0.2-0.6,0.5-0.6h1.7
			c0.3,0,0.5,0.2,0.5,0.6V86.6z"/>
		<path class="st0" d="M185.4,88.6c0,2.4-0.7,4.1-2,5.1c-1.2,0.9-2.9,1.4-5.3,1.4c-2.3,0-4.4-0.2-6.3-0.5c-0.5-0.1-0.7-0.4-0.7-0.8
			V77.7c0-0.4,0.2-0.6,0.6-0.6h1.5c0.4,0,0.7,0.2,0.7,0.6v14.9c1,0.1,2.7,0.2,5,0.2c2.5,0,3.8-1.2,3.8-3.7v-6.7c0-1.1-0.3-1.9-1-2.3
			c-0.5-0.3-1.2-0.5-2.2-0.5c-0.2,0-0.8,0-1.7,0.1c-0.4,0-0.7-0.1-0.7-0.4V78c0-0.3,0.1-0.5,0.4-0.6c0.5-0.3,1.4-0.4,2.8-0.4
			c3.4,0,5.1,1.8,5.1,5.4V88.6z"/>
		<path class="st0" d="M202.4,78.4L196.8,94c-0.2,0.6-0.5,0.9-0.7,0.9h-1.9c-0.4,0-0.5-0.2-0.3-0.7l5.4-14.7h-9.8
			c-0.3,0-0.5-0.2-0.5-0.6V72c0-0.3,0-0.4,0.1-0.5c0.1-0.1,0.2-0.1,0.4-0.1h1.6c0.4,0,0.6,0.2,0.6,0.6v5.1H202
			c0.3,0,0.5,0.2,0.5,0.7C202.5,78,202.5,78.2,202.4,78.4z"/>
		<path class="st0" d="M227.5,94.2c0,0.4-0.2,0.6-0.5,0.6h-1.7c-0.4,0-0.5-0.2-0.5-0.6V81.7c0-1.1-0.4-1.8-1.2-2.1
			c-0.6-0.2-2-0.3-4.3-0.3c-0.9,0-2.7,0.1-5.4,0.3c-0.6,0.1-0.9-0.1-0.9-0.4V78c0-0.3,0.3-0.5,0.9-0.7c1.7-0.3,3.7-0.5,6-0.5
			c2.6,0,4.5,0.3,5.5,0.8c1.4,0.6,2.1,1.9,2.1,3.7V94.2z M216.3,94.2c0,0.4-0.2,0.6-0.6,0.6H214c-0.4,0-0.5-0.2-0.5-0.6v-6.1
			c0-1,0.2-2,0.7-3.1c0.1-0.3,0.3-0.5,0.6-0.5h1c0.3,0,0.4,0.2,0.4,0.6V94.2z"/>
		<path class="st0" d="M246.9,94.2c0,0.4-0.2,0.6-0.5,0.6h-1.7c-0.4,0-0.6-0.2-0.6-0.6V81.7c0-0.9-0.3-1.5-1-1.9
			c-0.7-0.3-2-0.5-3.8-0.5c-1.6,0-2.9,0.1-4.1,0.3v14.6c0,0.4-0.2,0.6-0.6,0.6h-1.7c-0.4,0-0.5-0.2-0.5-0.5V78.2
			c0-0.4,0.2-0.6,0.6-0.7c1.8-0.4,4.1-0.6,6.8-0.6c2.6,0,4.5,0.4,5.5,1.1c1,0.7,1.6,2,1.6,3.7V94.2z"/>
		<path class="st0" d="M266.8,88.8c0,2-0.5,3.5-1.5,4.6c-1,1.1-2.3,1.6-4,1.6c-1.4,0-2.5-0.1-3.2-0.4c-0.3-0.1-0.4-0.3-0.4-0.6V93
			c0-0.4,0.3-0.5,0.8-0.5c0.3,0,1.1,0,2.3,0c2.2,0,3.4-1.1,3.4-3.4V83c0-1.3-0.4-2.2-1.1-2.8c-0.6-0.4-1.6-0.7-3-0.7h-1.5
			c-1.4,0-2.4,0.2-3.1,0.5c-0.4,0.2-0.6,0.5-0.6,0.8v13.4c0,0.4-0.2,0.6-0.6,0.6h-1.7c-0.3,0-0.5-0.2-0.5-0.6V81.3
			c0-0.4-0.2-0.8-0.5-1.2l-0.8-0.9c-0.3-0.3-0.5-0.5-0.5-0.6c0-0.2,0.2-0.5,0.5-0.7l0.8-0.7c0.3-0.2,0.5-0.4,0.6-0.4
			c0.1,0,0.3,0.1,0.5,0.3l0.6,0.6c0.3,0.3,0.7,0.7,1.2,1.3c0.9-0.9,1.8-1.5,2.7-1.8c0.6-0.1,1.7-0.2,3.2-0.2c4.3,0,6.4,2,6.4,5.8
			V88.8z"/>
		<path class="st0" d="M274.2,94.2c0,0.4-0.2,0.6-0.6,0.6H272c-0.4,0-0.5-0.2-0.5-0.6V77.6c0-0.4,0.2-0.6,0.6-0.6h1.7
			c0.4,0,0.5,0.2,0.5,0.6V94.2z"/>
		<path class="st0" d="M294.2,88.8c0,2-0.5,3.5-1.5,4.6c-1,1.1-2.3,1.6-4,1.6c-1.4,0-2.5-0.1-3.2-0.4c-0.3-0.1-0.4-0.3-0.4-0.6V93
			c0-0.4,0.3-0.5,0.8-0.5c0.3,0,1.1,0,2.3,0c2.2,0,3.4-1.1,3.4-3.4V83c0-1.3-0.4-2.2-1.1-2.8c-0.6-0.4-1.6-0.7-3-0.7h-1.5
			c-1.4,0-2.4,0.2-3.1,0.5c-0.4,0.2-0.6,0.5-0.6,0.8v13.4c0,0.4-0.2,0.6-0.6,0.6h-1.7c-0.3,0-0.5-0.2-0.5-0.6V81.3
			c0-0.4-0.2-0.8-0.5-1.2l-0.8-0.9c-0.3-0.3-0.5-0.5-0.5-0.6c0-0.2,0.2-0.5,0.5-0.7l0.8-0.7c0.3-0.2,0.5-0.4,0.6-0.4
			c0.1,0,0.3,0.1,0.5,0.3l0.6,0.6c0.3,0.3,0.7,0.7,1.2,1.3c0.9-0.9,1.8-1.5,2.7-1.8c0.6-0.1,1.7-0.2,3.2-0.2c4.3,0,6.4,2,6.4,5.8
			V88.8z"/>
	</g>
	<path class="st1" d="M357.5,43.2c0,0-1.4-0.3-4-1c-1.3-0.3-2.9-0.7-4.7-1.2c-0.5-0.1-1-0.2-1.5-0.4c-0.5-0.1-1-0.3-1.6-0.4
		c-1.1-0.3-2.2-0.6-3.4-0.9c-9.6-2.5-23.2-6.3-39.7-10.2c-8.3-1.9-17.2-3.9-26.7-5.8c-4.8-1-9.7-1.9-14.7-2.8
		c-5-0.9-10.1-1.9-15.4-2.8c-10.5-1.8-21.3-3.6-32.3-5.3c-11-1.7-22.2-3.4-33.4-5C174.6,6.8,169,6,163.4,5.2
		c-5.6-0.8-11.1-1.5-16.7-2c-11.1-1.1-22-1.6-32.6-1.8C92.9,1,73.1,2,56.2,3.3c-16.9,1.3-31,3-40.8,4.4C5.6,9,0,10,0,10
		S5.6,9,15.4,7.5C25.2,6,39.2,4.2,56.1,2.6c16.9-1.5,36.7-2.8,58-2.6c10.6,0.1,21.6,0.4,32.8,1.4c2.8,0.3,5.6,0.5,8.4,0.8
		c1.4,0.2,2.8,0.3,4.2,0.5l4.2,0.5c5.6,0.7,11.2,1.4,16.8,2.2c11.2,1.5,22.5,3,33.5,4.6c11,1.6,21.9,3.3,32.4,5
		c5.2,0.8,10.4,1.8,15.4,2.6c5,0.9,10,1.8,14.8,2.7c9.6,1.8,18.6,3.7,26.9,5.5c16.6,3.8,30.3,7.4,39.9,9.8c4.8,1.2,8.6,2.1,11.2,2.7
		c2.6,0.6,4,0.9,4,0.9L357.5,43.2z"/>
	<g>
		<path class="st0" d="M407.3,19v96.8h-54.1V19H407.3 M407.3,17h-54.1c-1.1,0-2,0.9-2,2v96.8c0,1.1,0.9,2,2,2h54.1c1.1,0,2-0.9,2-2
			V19C409.3,17.9,408.4,17,407.3,17L407.3,17z"/>
	</g>
	<path class="st0" d="M396.2,63.7c1.4-5.7,3.8-15.3-3.4-21.9c-7.6-7-20.3-4.7-27.4-0.7c-3.6-0.9-7.4-1.9-12.4-3.1v4.1
		c5,1.1,8.7,2.1,12.2,3l0.9,0.2l0.7-0.4c5.7-3.5,17-6,23.3-0.2c5.4,5.1,3.6,12.5,2.2,18c-0.2,0.7-0.3,1.3-0.5,2
		c-1.3,5.7-0.4,16.6,0.7,29.3l0.1,0.9c0.6,6.7-0.6,9.4-1.6,10.6c-0.7,0.8-1.6,1.1-3.1,1.1c-2.3,0-3.5-0.2-5-3.9
		c-0.2-0.6-0.6-2-1-3.8c-2.3-9.4-6.8-26.8-16.6-26.8c-5.9,0-9.3,6.4-12.3,13.1v15.1l0.4,0c0.9-6.3,5.1-24.2,12-24.2
		c6.7,0,11,17.3,12.6,23.8c0.5,2.1,0.9,3.5,1.2,4.3c2.1,5.4,4.9,6.5,8.7,6.5c1,0,3.9,0,6.1-2.4c2.3-2.5,3.2-7,2.6-13.6l-0.1-0.9
		c-1-11.9-1.9-23.1-0.8-28.1C395.9,65,396.1,64.4,396.2,63.7z"/>
</g>
</svg>
