<svg style="position: absolute; width: 0; height: 0;" width="0" height="0" version="1.1" xmlns="http://www.w3.org/2000/svg" xmlns:xlink="http://www.w3.org/1999/xlink">
<defs>
<symbol id="phone" viewBox="0 0 32 32">
<path class="path1 fill-color1" d="M16 31.508c-8.492 0-15.385-6.892-15.385-15.385s6.892-15.385 15.385-15.385c8.492 0 15.385 6.892 15.385 15.385s-6.892 15.385-15.385 15.385zM16 1.969c-7.754 0-14.154 6.277-14.154 14.154s6.4 14.154 14.154 14.154 14.154-6.4 14.154-14.154-6.4-14.154-14.154-14.154z"></path>
<path class="path2 fill-color1" d="M20.554 25.969c-0.246 0-0.492 0-0.738 0 0 0-4.554-0.369-8.862-4.677-4.185-4.185-4.677-8.492-4.677-8.862-0.246-2.954 1.108-5.292 3.446-6.154 0.985-0.369 1.969 0.123 2.462 0.985l1.108 2.585c0.369 0.738 0.123 1.6-0.369 2.215l-1.6 1.6c0.123 0.492 0.738 1.723 2.708 3.692s3.2 2.585 3.692 2.708l1.477-1.477c0.615-0.615 1.477-0.738 2.215-0.369l3.2 1.477c0.862 0.369 1.231 1.354 0.985 2.338-0.738 2.462-2.585 3.938-5.046 3.938zM10.338 7.385c-0.123 0-0.123 0-0.246 0-1.969 0.738-2.954 2.462-2.708 4.8v0c0 0 0.369 4.185 4.308 8 3.938 3.938 8.123 4.431 8.123 4.431 2.215 0.246 3.938-0.862 4.554-3.077 0.123-0.369-0.123-0.738-0.369-0.862l-2.954-1.477c-0.246-0.123-0.615-0.123-0.862 0.123l-1.969 1.969h-0.246c-0.123 0-1.846-0.246-4.8-3.2-3.077-3.077-3.2-4.554-3.2-4.8v-0.246l1.969-1.969c0.369-0.123 0.369-0.369 0.246-0.738l-1.108-2.462c-0.123-0.246-0.369-0.492-0.738-0.492z"></path>
</symbol>
<symbol id="email" viewBox="0 0 32 32">
<path class="path1 fill-color1" d="M27.938 31.877h-24.369c-1.723 0-3.077-1.354-3.077-3.077v-14.769c0-0.862 0.369-1.846 1.108-2.338l11.2-9.477c1.723-1.477 4.185-1.477 5.908 0l11.2 9.477c0.738 0.615 1.108 1.477 1.108 2.338v14.646c0 1.846-1.354 3.2-3.077 3.2zM15.754 2.338c-0.738 0-1.6 0.246-2.215 0.862l-11.077 9.477c-0.369 0.369-0.615 0.862-0.615 1.477v14.646c0 0.985 0.862 1.846 1.846 1.846h24.246c0.985 0 1.846-0.862 1.846-1.846v-14.769c0-0.615-0.246-1.108-0.615-1.477l-11.2-9.477c-0.615-0.492-1.354-0.738-2.215-0.738z"></path>
<path class="path2 fill-color1" d="M15.631 22.892c-0.123 0-0.246 0-0.246-0.123l-11.938-6.646c-0.246-0.123-0.369-0.492-0.246-0.862s0.492-0.369 0.862-0.246l11.692 6.523 11.692-6.523c0.246-0.123 0.615 0 0.862 0.246 0.123 0.246 0 0.615-0.246 0.862l-12.062 6.646c-0.123 0.123-0.246 0.123-0.369 0.123z"></path>
<path class="path3 fill-color1" d="M23.138 18.462c-0.369 0-0.615-0.246-0.615-0.615v-6.154h-13.538v6.154c0 0.369-0.246 0.615-0.615 0.615s-0.615-0.246-0.615-0.615v-6.769c0-0.369 0.246-0.615 0.615-0.615h14.769c0.369 0 0.615 0.246 0.615 0.615v6.769c0 0.246-0.246 0.615-0.615 0.615z"></path>
<path class="path4 fill-color1" d="M19.938 15.015h-8.369c-0.369 0-0.615-0.246-0.615-0.615s0.246-0.615 0.615-0.615h8.369c0.369 0 0.615 0.246 0.615 0.615s-0.246 0.615-0.615 0.615z"></path>
<path class="path5 fill-color1" d="M19.938 17.477h-8.369c-0.369 0-0.615-0.246-0.615-0.615s0.246-0.615 0.615-0.615h8.369c0.369 0 0.615 0.246 0.615 0.615s-0.246 0.615-0.615 0.615z"></path>
</symbol>
<symbol id="location" viewBox="0 0 32 32">
<path class="path1 fill-color1" d="M16 31.262c-2.954 0-10.092-15.631-10.092-20.677 0-5.538 4.554-10.092 10.092-10.092s10.092 4.554 10.092 10.092c0 5.046-7.138 20.677-10.092 20.677zM16 1.723c-4.923 0-8.862 3.938-8.862 8.862 0 5.292 7.262 19.2 8.862 19.446 1.723-0.246 8.862-14.154 8.862-19.446 0-4.923-3.938-8.862-8.862-8.862z"></path>
<path class="path2 fill-color1" d="M16 16.615c-3.323 0-6.031-2.708-6.031-6.031s2.708-6.031 6.031-6.031c3.323 0 6.031 2.708 6.031 6.031s-2.708 6.031-6.031 6.031zM16 5.785c-2.585 0-4.8 2.092-4.8 4.8s2.092 4.8 4.8 4.8c2.585 0 4.8-2.092 4.8-4.8s-2.215-4.8-4.8-4.8z"></path>
</symbol>
<symbol id="time" viewBox="0 0 32 32">
<path class="path1 fill-color1" d="M16 31.508c-8.492 0-15.385-6.892-15.385-15.385s6.892-15.385 15.385-15.385c8.492 0 15.385 6.892 15.385 15.385 0 8.369-6.892 15.385-15.385 15.385zM16 1.969c-7.754 0-14.154 6.277-14.154 14.154s6.4 14.154 14.154 14.154 14.154-6.4 14.154-14.154-6.4-14.154-14.154-14.154z"></path>
<path class="path2 fill-color1" d="M20.308 16.738h-4.308c-0.369 0-0.615-0.246-0.615-0.615v-8.738c0-0.369 0.246-0.615 0.615-0.615s0.615 0.246 0.615 0.615v8.123h3.692c0.369 0 0.615 0.246 0.615 0.615s-0.246 0.615-0.615 0.615z"></path>
<path class="path3 fill-color1" d="M14.031 7.877l1.969-3.446 1.969 3.446z"></path>
<path class="path4 fill-color1" d="M19.692 18.092l3.569-1.969-3.569-2.092z"></path>
</symbol>
<symbol id="phone-call" viewBox="0 0 32 32">
<path fill="#1abc9c" class="path1 fill-color2" d="M16 0c-8.8 0-16 7.2-16 16s7.2 16 16 16c8.8 0 16-7.2 16-16s-7.2-16-16-16zM25.867 22.267c-0.8 2.533-2.667 4.133-5.6 3.867-0.933-0.133-5.2-0.933-9.2-4.933s-4.8-8.133-4.8-9.2c-0.4-2.933 0.8-5.2 3.2-6 0.667-0.267 1.467 0.133 1.733 0.8l1.2 2.8c0.267 0.533 0.133 1.2-0.267 1.6l-1.867 2c0 0 0 1.6 3.2 4.667 3.067 3.067 4.667 3.2 4.667 3.2l1.867-1.867c0.4-0.4 1.067-0.533 1.733-0.267l3.2 1.6c0.8 0.267 1.067 1.067 0.933 1.733z"></path>
</symbol>
<symbol id="user" viewBox="0 0 32 32">
<path class="path1 fill-color1" d="M30.031 31.385h-28.062v-0.615c0-1.6 1.231-4.308 2.954-5.415l4.923-3.323c0.615-0.492 1.477-0.492 2.215-0.123l3.938 2.462 3.938-2.462c0.738-0.369 1.477-0.369 2.215 0l4.923 3.323c1.723 1.231 2.954 3.815 2.954 5.415v0.738zM3.323 30.154h25.477c-0.246-1.231-1.108-2.954-2.338-3.815l-4.923-3.323c-0.246-0.123-0.615-0.123-0.862 0l-4.677 2.708-4.677-2.831c-0.246-0.123-0.615-0.123-0.862 0l-4.923 3.323c-1.231 0.985-1.969 2.708-2.215 3.938z"></path>
<path class="path2 fill-color1" d="M12.308 23.385c-0.123 0-0.246 0-0.369-0.123-0.246-0.246-0.369-0.615-0.123-0.862 0 0 0.615-0.862 0.738-3.2-1.477-1.477-2.092-2.954-2.462-3.692-0.246 0-0.492-0.123-0.862-0.369-0.615-0.492-1.108-1.231-1.231-2.462-0.123-0.862 0-1.6 0.492-2.092 0.123-0.246 0.369-0.369 0.615-0.492 0-1.231 0.123-4.308 1.846-6.031 0.246-0.246 0.492-0.369 0.985-0.615l1.231-0.492c0.123-0.492 0.369-1.231 0.862-1.969 0.123-0.123 0.246-0.246 0.369-0.246s0.369 0 0.492 0.123c0.492 0.369 1.108 0.492 1.723 0.738 1.108 0.369 2.462 0.862 3.815 2.462 2.092 1.354 2.338 4.677 2.462 5.908 0.246 0.123 0.492 0.246 0.738 0.492 0.369 0.492 0.615 1.231 0.369 2.215-0.246 1.108-0.615 1.969-1.231 2.462-0.246 0.246-0.615 0.246-0.862 0.369-0.246 0.738-0.985 2.215-2.462 3.692 0.123 2.338 0.738 3.2 0.738 3.2 0.246 0.246 0.123 0.615-0.123 0.862s-0.615 0.123-0.862-0.123c-0.123-0.123-0.985-1.231-0.985-4.185 0-0.123 0.123-0.369 0.246-0.492 1.846-1.846 2.462-3.692 2.462-3.692 0.123-0.246 0.369-0.492 0.738-0.492s0.985-0.369 1.231-1.846c0.123-0.615 0-0.985-0.123-1.231s-0.369-0.246-0.369-0.246c-0.369 0-0.615-0.246-0.615-0.615 0 0 0.123-4.062-1.969-5.415 0 0-0.123-0.123-0.123-0.123-1.231-1.477-2.338-1.846-3.446-2.215-0.492-0.246-1.108-0.369-1.6-0.738-0.369 0.738-0.369 1.231-0.369 1.231 0 0.246-0.123 0.369-0.369 0.492l-1.477 0.615c-0.246 0.492-0.492 0.615-0.615 0.738-1.846 1.723-1.477 5.538-1.477 5.538 0 0.123 0 0.369-0.123 0.492s-0.246 0.123-0.492 0.246c0 0-0.246 0-0.369 0.246-0.246 0.246-0.246 0.615-0.123 1.231 0.246 1.477 0.862 1.846 1.231 1.723 0.246 0 0.615 0.123 0.615 0.369 0 0 0.615 1.846 2.462 3.692 0.123 0.123 0.246 0.246 0.246 0.492-0.123 2.954-0.985 4.062-0.985 4.185-0.246 0.123-0.369 0.246-0.492 0.246z"></path>
</symbol>
</defs>
</svg>
